<?xml version="1.0" encoding="UTF-8" standalone="no"?>
<svg
   width="76.671997mm"
   height="83.687279mm"
   viewBox="0 0 76.671997 83.687279"
   version="1.1"
   id="svg240"
   sodipodi:docname="Armchair_(PSF)_SVG_format.svg"
   inkscape:version="1.2.2 (1:1.2.2+202212051550+b0a8486541)"
   xmlns:inkscape="http://www.inkscape.org/namespaces/inkscape"
   xmlns:sodipodi="http://sodipodi.sourceforge.net/DTD/sodipodi-0.dtd"
   xmlns="http://www.w3.org/2000/svg"
   xmlns:svg="http://www.w3.org/2000/svg">
  <defs
     id="defs244" />
  <sodipodi:namedview
     id="namedview242"
     pagecolor="#ffffff"
     bordercolor="#999999"
     borderopacity="1"
     inkscape:showpageshadow="0"
     inkscape:pageopacity="0"
     inkscape:pagecheckerboard="0"
     inkscape:deskcolor="#d1d1d1"
     inkscape:document-units="mm"
     showgrid="false"
     inkscape:zoom="1.0248301"
     inkscape:cx="139.53533"
     inkscape:cy="195.64219"
     inkscape:window-width="1856"
     inkscape:window-height="1016"
     inkscape:window-x="64"
     inkscape:window-y="27"
     inkscape:window-maximized="1"
     inkscape:current-layer="svg240" />
  <rect
     style="fill:#ffffff;stroke-width:0.155"
     id="rect415"
     width="78.595428"
     height="86.0774"
     x="-0.86307645"
     y="-0.87238926" />
  <path
     d="M44.686082 83.655742c-2.22988.25452-3.15505-1.04696-2.75205-3.34183-.68586-2.71146 1.64212-8.77073-2.40871-8.83353-6.593234-1.54568-13.261674-2.86495-19.981334-3.87291-4.19274-.60419-8.44541-1.13024-12.65241-1.77724-.8257 3.22768-.43421 7.21509-.55325 10.74354-.90512-.23369-1.08624 1.81574-1.56541.30406-.77135-.24511-.52159-5.62249-.75143-8.41558.34841-2.8905-.56627-5.57834-.74472-1.77979.0859 2.39798-.10644 3.03254-.21867.31334-.98988-6.27692.37945 8.4846-.50065 1.38952-.1645-2.33738-.81419-3.095-.39473-.21357-.0849 2.22655 1.2317 7.85507.16403 8.18787.089-4.05532-.66306-8.07857-.84287-12.11921 2.72546 1.37472 1.90472-2.27264 2.0641-4.43419-.25883-1.72168.26072-5.65981-.911-6.21121.25608 1.99164.39652 7.69459-.0465 2.63216.4056-1.74834-1.24035-5.22067-.67738-1.40447.13729 1.78804.88717 6.10756.46573 6.4438-.37683-2.13271-.50014-7.69604-1.1767-7.93548.10068 2.51146.98852 8.66352.42876 9.27619-.0211-1.73809-.4035-5.88279-.46132-1.77238.36593 1.53599.0433 4.90977-.43812 1.58967-.0541-3.5969.16155-7.30463-.69936-10.81162-.34852-2.55469 2.22872-4.3713 3.52617-6.85489 1.65123-2.95297 2.82819-6.38701 2.44263-9.79217-2.40813.82018-6.20156-1.94275-3.97689-4.71171 2.73317-2.31693-2.43789 2.83163.70244 3.69011 2.24013 2.77909 4.47662-4.32377 2.41944-.64168-2.7855 2.20442-3.97549-4.21531-.47345-3.26717 3.24193 1.36911 4.48561 5.12989 4.89353 8.38521-.46672 3.25144-.69869 6.30607 2.993 3.82966.87581-2.08985-.88987-6.22939-.29865-7.31325 1.04782 1.90109-.0911 7.00835 1.29631 7.16474 1.14961-2.21926-.76108-6.27871-.26868-7.75938.69469 2.02753.55579 5.95752.99401 6.92411.50934-1.73608-.43809-6.93844-.054-6.61963 1.02304 2.04492-.35128 6.60883.57466 7.30703 1.74728-1.81988-.51403-7.68274.22907-8.04344.81239 1.88944.0475 7.34356.90337 7.41929.58425-2.27308-.60589-7.76422-.20064-8.17632 1.25319 2.18196-.50938 7.72359 1.26955 8.03503.85318-2.38851-.34898-6.83717-.27448-8.21855 1.38685 2.2583-.12863 7.16324 1.32199 8.0591.6635-2.28395-.98727-7.88907-.49904-8.24038 1.2317 2.21358-.25764 7.12432 1.52997 8.02961 1.85593-1.99996-.17051-7.36005.12028-8.98795 1.32481 2.13867.15783 7.87834 1.25544 8.33679.56707-2.40539-1.15945-8.15752-.57585-8.82662 1.06727 2.54166.11939 7.40396 1.52722 8.71411.7029-2.77675-1.27555-9.65753-.88164-9.79315 1.08222 3.02484 1.21086 6.61317 1.21905 9.61831 3.85335-.13918 1.81844-4.80824 1.58816-7.21686-.39151-1.65465-1.96764-6.88799-.39978-2.56557 1.37999 2.56442.83885 7.09501 1.67549 8.91653 1.6019-2.251.16378-6.97087-.97705-9.78065-.50078-1.76149-4.12688-5.573902-.88324-2.41905 2.00557 3.51093 2.94904 7.49726 2.81914 11.54148 4.66811 1.55029 2.11675-5.61953 1.57517-8.40538.0326-2.07388-2.36229-4.98533-1.83552-5.08949 1.03794 1.09611 2.10333 2.68799 1.23838 2.28643 1.59133 3.39341 1.45328 7.55699 2.26118 10.89125 1.31164-1.24939 1.8053-2.08724 1.63939-3.5444-.21749-3.46412.36061-8.01161-2.61718-10.425869-.37023-.959517 2.9325 1.751109 1.76982 1.790269 1.45608 2.21539.62485 7.75063 1.25568 8.51789.0798-3.78459.079-7.73543-.81719-11.327625-4.47841.677124-9.21958 1.307837-13.71275 2.414265-4.19852 1.12774-8.59149 1.90399-12.53327 3.78091-1.68957-.17889 3.80562-1.77712 4.91559-2.20148 7.00698-2.08471 14.21632-3.365284 21.44027-4.438051 1.83824.835961 1.38558 5.850291 1.48782 8.383741.38041 2.13808-1.0324 5.01398 1.14797 6.51564 1.722704 1.93834-2.15666-4.02564.31921-.64204 3.025994 3.98769-3.78279-6.32591-.12727-1.1878.41074 1.24862 2.901594 3.35794 1.130624.75563-1.069804-1.51409-2.878834-5.57624-.721464-1.78474.491494 1.10824 3.267594 5.31564 1.631384 1.78474-.89337-1.13946-4.267994-7.1718-1.53625-3.03684.83224 1.67923 4.55698 7.32274 2.21534 2.54996-.83486-1.26202-3.654854-6.61938-1.11199-2.4547 1.08909 1.71433 2.11031 2.94563 3.7795 4.80504-.89767-1.48382-4.89332-8.2706-1.71932-3.30622.95701.64149 4.13919 5.52311 2.01428 1.92951-1.0848-1.44956-2.37919-4.4633-.56265-1.35467.89952 1.96718 2.98033 4.32027 1.05191 1.00604-2.85771-4.99804 3.46846 5.61354.71349.11576-.83695-1.53951-3.53366-4.70612-3.19517-5.30697 1.8837 2.149 3.38789 6.13107 5.27023 7.31777-.36174-1.91676-3.32476-4.97737-3.35242-6.36461 1.01805 1.53852 3.63452 6.06393 3.89853 5.84315-1.17934-1.67478-1.34426-2.52955.009-.27509 1.61631 1.69251-2.18811-4.27046-2.98717-5.59574-1.37048-2.80992 2.45052 3.48921 3.24177 4.80966 2.24934 3.8556 1.81369-.0586-.0467-1.7846-.94792-1.33046-3.86783-6.08603-3.09945-5.5374 1.8145 3.31035 4.05665 6.29808 6.25776 9.328-1.80161-3.80255-4.50776-7.55955-6.67628-11.33282 1.10695 1.08123 3.80445 5.7922 5.39962 8.34828 1.10516 1.42946 4.29578 5.17356 1.77299 1.47567-3.32774-4.48278-5.98872-9.40266-8.84286-14.187379-.37955-2.008319-2.97754-5.453037-3.81747-8.116796-.0847-1.642623 1.66706 3.803232 2.48793 4.763058 3.10053 6.250327 6.58248 12.369087 10.86611 17.890727-.84627-1.85362 2.4582 2.92474.6692.14331-2.51336-3.30048-4.3417-7.07639-6.58325-10.52876-.58123-.0282-2.73493-5.153697-3.8957-7.007596-1.12966-2.181058-3.58903-6.75027-3.38186-7.84156 3.42484 8.414354 8.19022 16.187386 13.04863 23.834206 2.76919 3.56268-1.78928-3.26706-2.28272-4.62785-.66093-2.90363-3.16813-5.64771-4.6098-8.454584-.94244-1.748951-1.78538-3.39297-.0561-.980647 3.13222 4.497021 5.37232 9.550041 8.65966 13.947771-.34463-.98419-3.50029-5.96753-1.09026-2.34882 1.03188 1.9985 2.04335 2.38336.48883.1091-1.63098-2.91844-3.58106-6.09196-5.13574-8.77374 2.52561 3.13146 4.02393 7.03735 6.44431 10.20234-.57582-1.54924-2.86654-4.75844-.62075-1.66864 2.42968 3.10646-1.42991-3.07113-2.02398-4.2545-.95033-1.48514-4.27573-7.895718-1.55407-3.22721 1.68503 2.71746 3.0722 6.18249 5.09233 8.35497-.60425-1.52288-2.8687-5.00597-.4951-1.49698 2.13633 2.58168-1.57195-3.06737-2.01515-4.04529-1.94031-3.52343-3.75277-7.113948-5.93855-10.497701 3.43134 4.862088 5.89974 10.425581 9.10426 15.449141.45107-.57767-2.98786-5.2426-.57578-1.88857 2.92337 3.89539-1.44842-3.21813-2.33626-4.40623-1.00889-1.40074-3.72099-6.443081-1.42971-2.65491 1.86733 2.53884 3.64714 6.57068 5.55908 8.21997-1.89198-2.161-.95284-1.86276.27147-.0137-.69332-2.62878-3.76845-6.16036-5.11649-9.190926-3.71547-6.333549-7.05274-12.900447-9.85154-19.70043-.68947-2.683553-3.11908-4.103006-3.83917-.61027-.802084 3.626707-1.975384 7.174248-2.259574 10.894748-.67081 1.582459-.79093 7.296358-1.27692 6.490266.23784-3.950174 1.30756-7.823982 1.75646-11.758098 1.29394-3.06722.66757-8.986334 5.412184-8.650842 4.7956-.435946 9.58412-1.302628 14.42573-.847947 6.36091.162267 12.87819.679038 18.99315 2.41068 2.28777-.174957 5.45441 4.072926 5.68214 3.438502.98373 2.864062-.20053 6.505999-.4408 9.623899-.83341 3.555649-1.34611 7.318502-2.30922 10.769068 3.73831 3.08593-1.0145 5.80698-.68095 9.14271-.72555 5.46354.3046 10.92962.17654 16.41022.47825 3.29312-.0774 6.5083 1.08953 9.66241.0686 1.86145 1.69298 5.47375.94624 6.39139-1.10573-2.72071-.77835-7.95849-2.56283-9.19697-2.377 2.76709.64706 6.74344.63271 9.8225-2.05859 1.90169-2.0453-3.24395-2.90115-4.93624.14836-5.90285-5.08165-.00072-7.83035.32276-3.19818 1.24629-6.28495 2.73778-9.36017 4.24624-1.60831.92656-3.73059 1.5685-5.35067 2.95553-1.38521 2.67443-.39931 6.92195-.80054 10.18509.45948 1.59299-1.12887 2.03959-2.20979 2.27965zm-.0708-.57295c-.5844-1.71938.0737-9.00166-.68801-8.11347-.35547 1.03341-2.01656 1.08258-1.07014 3.65297.13643 1.82412.30069 5.91975-.10838 1.62489.0843-5.48973-1.85597 3.74277 1.33248 2.88535l.43923.0149.0946-.0647.00022.00002zm1.14977-.3344c.24693-1.71059-1.19217.25789 0 0zm.64378-.45847c.39557-2.78655.31493-7.87938.2933-9.46915-.58455 2.80109-.45834 7.63457-.2933 9.46915zm-1.51349-1.05172c-.20487-1.64544.28952-6.88062-.21451-6.21447.0286.99807-.3082 7.32883.21451 6.21447zm.71992.35627c.60179-2.48517-.56855-1.25715 0 0zm-3.22603-4.90544c-.0341-2.07002-.48037-.0517-.0435.22701l.0437-.22702-.00019.00001zm-36.375484-.7698c.15636-2.69625-.52563-.477-.12103.44053l.12103-.44054v.00001zm-.56764-.16118c.44887-1.55675-.15474-4.99144-.19997-1.10267.0991-.3635-.21796 2.18104.19997 1.10267zm38.312574-.36185c-.23107-.42316-.0719.37538 0 0zm2.31336-.21407c-.14671-.72362-.0734.97962 0 0zm-2.74706-.39631c-.47744-2.01609-.0397 1.38621.00007 0h-.00007zm1.13223.26113c.10874-5.14687.0874-10.39425.37482-15.48213.52817.605 3.49943-1.47147 1.36345-2.45268.76064-1.48304 2.93988-3.74241 1.11674-.76599-1.20298 1.92128.39648 1.18516.37611.31306 1.07312-1.85481 1.91115-4.3625 2.71393-6.7688.29564-1.8825 1.25658-3.31584-.81651-1.79319-.64036-.45942-.93868 3.93929-1.05227 4.49518.50446-1.69548 1.28186-3.97587.90851-.97353-.33943.97826-1.80088 3.9357-.97957 1.25603-1.07736 1.92922-1.3669 1.89048-.35013-.0784-.47347 1.05362-3.84317 4.47929-3.59449 3.2956 1.82741-.62681 4.79763-7.79849 2.02016-3.18032-.96329 1.98853-5.26426 4.94791-.59201 4.70858.62955 1.74712-2.04273 1.58555-3.74888 1.05458-.12878 1.30461 1.87268 8.43214.33767 3.36495-1.27897-4.89365.27203 5.6789.71222 5.69686-.28242-2.26968.1997-3.10396.12823-.58259.0231 1.95806.50968 4.59077-.44439 1.69084.28171 2.69824 1.07697 4.33013 1.52641 6.20195zm-.52854-2.286c.0997-.30604.0455.45792 0 0zm-.0363-.41275c.037-.19076.0369.19086 0 0zm.24732-2.44488c.0352-3.00778-1.82079-8.5043-1.02187-10.06608-.0462 3.16785 1.3863 7.84655 1.02187 10.06608zm5.63317-21.36762c.17774-.81256.10559.35417 0 0zM4.939018 75.057532c-.10218-.29438-.10218.29438 0 0zm37.474644-.18671c.35297-4.99903-.90475.58016 0 0zm1.26036-.041c-.29624-1.60857-.28243-.0923 0 0zm-38.735004-.38617c-.0513-.5139-.11986.45015 0 0zm41.182694-.0562c-.14842-.33403-.14282.37099 0 0zm.0656-.65285c.14123-1.22685-.25551.51132 0 0zm-3.19868-.22956c-.19813-.58402-.0556.55467 0 0zm-36.928714-.52186c-.17015-1.3025-.20298 1.32082 0 0zm36.148054-.17992c.1966-2.08656-.79497-5.48321-.33468-1.30175.13409-.22677-.0979 1.76697.33468 1.30175zm.98325-.0794c-.24107-.93005-.0613.68457 0 0zm-37.114734-.80852c.32494-3.57789-.56465-1.05385 0 0zm40.788374-.0805c1.38786-.9469-.0333-4.85296-.0903-1.48257.0792.049-.15103 1.97152.0903 1.48257zm-41.719354-.22927c-.0223-2.74224-.5968.15076 0 0zm39.760644-.38266c.10135-1.0836-.18359-1.89105-.1123-.21669l.0378.8221.0745-.60541zm-39.247494.40902c-.10457-.69062-.19803.34265 0 0zm40.921924-.52205c-.0305-1.03853-.23053 1.05939 0 0zm-5.12909-.0317c-.44729-.26389-.21059.28724 0 0zm-1.82145-.0405c-1.28153-.68575-.41086.25048 0 0zm-1.15715-.30916c-2.23779-.87372-3.04822-.15708 0 0zm3.96579-.12324c-.18587-.37257-.0505.33198 0 0zm-1.75234-.10915c.40464-3.91045.3358-7.90372.71363-11.83339-.69055.784-4.98946-1.28013-3.92728-.39003 2.11133.64276 3.38846 1.64048.63444.467-2.66542-.65515-5.107294-1.15972-7.874004-1.70996-2.07989-.4394-2.85538-.62469-2.58568-.16011-.91123-.076 2.4493 1.13365-.49666.36332-1.98402-1.21827-6.0297-1.2041-8.8049-1.92929-1.40581-.13476-7.45739-1.16028-3.22577.11283 2.31287 1.03756 5.79347 1.85286 7.493 2.89495-3.95185-1.05926-7.62655-3.16729-11.63108-3.93505-1.58201.0942 6.09157 2.67166 1.36525 1.08005-1.31155-1.06174-8.22066-2.324-3.44692-.44982 4.37488 1.79127 8.9572 3.17038 13.14418 5.36045-4.22253-1.6844-8.69592-3.54791-13.08855-5.12302-1.26039-.60699-5.91733-2.72674-5.45668-1.65462.65191 3.66337.21375 7.60037.82986 11.11676 2.38714.66487 5.55299.8007 8.16875 1.24435 6.38819.99016 12.80552 1.83673 19.12944 3.27908 1.53228.37542 6.606754 1.00731 2.288754-.35496-4.118124-1.40703-8.210794-3.00222-12.035984-5.05008 4.31087 1.83417 8.82611 3.89976 13.449194 5.22817 1.61082.53161 3.85868 1.7494 5.35701 1.44337zm-.67418-.33174c-4.4806-1.65648-8.793994-3.73817-13.291084-5.34651 2.98972.26709 6.34959 2.72166 9.569584 3.56929.55482.31683 4.59256 1.68199 3.7215 1.77722zm-.38876-.5361c-2.23933-1.95629-5.73516-2.41827-8.325514-4.07108-4.08036-1.88798 3.332564 1.3668 4.380004 1.7785.59521.55509 6.12686 1.54371 3.94551 2.29258zm-6.575084-.36878c-3.8923-1.49428-7.72602-3.13119-11.76903-4.2063-1.19768-.51802-5.38035-2.039-1.58713-.86383 4.58715 1.54973 9.20146 3.06291 13.61016 5.07136l-.254-.001v-.00023zm-3.88788-.84833c-3.92456-1.41964-7.91295-2.60873-11.98311-3.49566-1.87979-.25438-7.87445-3.02418-2.98163-1.03439 5.09472 1.4347 10.53753 2.40559 15.26487 4.64658l-.30013-.11641v-.00012zm10.381824-.20458c-.90313-1.1731 1.77664.26198 0 0zm-2.73928-1.02187c-4.019554-1.84178-8.136084-3.54088-12.371144-4.78951 3.17807.33738 6.92113 2.29272 10.193464 3.53422.0615.061 3.80653 1.61575 2.17768 1.25529zm1.57394-.0648c-2.63125-1.0358.93751-.12838 0-.00005v.00005zm1.16957-.32431c-1.04899-1.12788 1.92261-.1297 0 0zm-.78317-.14907c-3.31454-1.0858-.57467-1.05317 0 0zm.508-.56066c-2.01983-.68633-3.32152-1.72149-.43585-.49682-.0895-.30814 1.23495.86245.43585.49682zm.25194-.52397c-1.22425-.56839-5.98756-3.5109-2.25734-1.58256 1.90652 1.28583 3.09607 1.44583.52531-.12817-4.562024-2.59014 3.06988.64954 2.14309 1.5544-.18827.0408-.13156.46671-.41106.15633zm-4.2736-.11562c-1.863304-1.13023-7.680694-2.43549-7.513964-2.9585 1.80791.56054 7.571154 2.48833 7.513964 2.9585zm-24.148274-.58637c-1.48212-.6139-1.33167-.89623 0 0zm23.936604-.16214c-3.422114-.86815-6.495264-3.05554-9.983334-3.47492 3.18794-.28026 6.45145 2.63199 9.826474 3.15904.49891-.37188.58328.74566.15686.31588zm5.16582-.2952c-1.00921-.81662-5.80458-3.50753-2.00439-1.66675 4.08061 2.30318-4.39604-3.56652-.28287-.94817 1.84395.99731 2.47608 1.6178 2.12524 2.22619.24843-.17284.64714.83022.16202.38873zm-29.569274-.17957c-1.98454-.8337-.19907-.22221 0 0zm-5.52621-.48409c-.75193-1.04566 1.67132.26044 0 0zm6.54049.0156c-1.86967-.9395-.30071.68866-2.73049-.72141-.0188-.2656-4.5612-2.17793-.61384-.60555.3176.17074 4.42427 1.2894 3.34433 1.32696zm-2.37066-.0586c-.9042-.3939.59419.13513 0 0zm5.69383-.17416c-1.47169-.87871-6.30034-1.91302-6.179-2.36986 1.74655.52873 5.18261 1.69248 6.179 2.36986zm-7.57766.0212c-1.92898-.19821-3.05492-2.36804-.99228-.47727-.0246.0296 2.24873.73063.99228.47727zm27.220334-.14757c-5.609244-2.23348-11.523194-3.54726-17.042864-6.00742-1.9051-.37899-4.56997-1.90536-1.24514-.59189 5.36988 2.15938 10.88053 3.86991 16.40416 5.59243.20656.0595 3.122924 1.09553 1.883844 1.00688zm-26.876564-.0677c-.71367-.53511.97124.0191 0-.00002v.00002zm7.95356.008c-1.96284-.7573-.6505-.6871 0-.00022v.00022zm7.19666-.2373c-1.22428-.73414.83962.16253 0 0zm-11.47233-.24382c-3.03115-1.28357-1.12425-.71885 0 0zm-3.93204-.0827c.0559-.74127.86874.26669 0 0zm14.59928-.13258c-1.86565-.84746-5.27249-2.4625-1.56419-.87439.0872.0323 2.53321 1.16306 1.56419.87439zm-8.38124-.26058c-.061-.26602.32268.2721 0 0zm5.73617-.0484c-3.71366-1.70133-7.47323-3.30905-11.31709-4.69677-1.60887-1.03169-3.03293-1.38214-.27014-.47519 3.89234 1.78786 8.02408 3.18856 11.82006 5.13348l-.0668.10576-.16598-.0673v-.00002zm-4.04438-.11433c-2.9586-1.44364-6.12588-2.33011-9.15287-3.40663.0923-.19593 4.14621 1.06106 5.53491 1.7706.67182.27646 4.27444 1.39469 3.61796 1.63603zm24.208224-.11042c-.39358-1.26222 1.66304.56092.00001.00004l-.00001-.00004zm-5.96588.0463c-1.241474-.63728-6.799654-1.90866-5.438724-2.04191 1.24262.67875 5.652934 1.24322 5.438724 2.04191zm-24.645694-.13371c-2.89249-1.06346-.74572-.96929.48673.00086-.51664-.30316-.0725.27666-.48673-.0008v-.00006zm29.767184-.16393c-2.69539-1.17168 1.33656-.0641 0 0zm-26.473794-.0469c.1085-.15668.16276.15166 0 0zm3.23418-.22888c-4.12319-2.25094.30462-.33014 0 0zm5.86749-.079c-3.002-1.23931-.69211-.67789 0 0zm-10.4289-.2218c-2.72005-.92289-2.20086-1.19595.28725.0398l-.0238.0661-.2635-.10583zm22.27715.0449c-.00094-.42921.593184.1475 0 0zm-28.30825-.16975c.0205-1.22861 1.46473.22446 0 0zm34.008494-.0423c-2.0236-.43054.53442-.60352 0 0zm-32.523904-.21743c-.71039-.97893 1.34922.72404 0 0zm1.95791-.2154c-1.93172-.90366 1.79704.58852 0 0zm9.52566.069c-3.31809-1.34457-.9883-.61604 0 0zm13.54601-.0274c-3.07811-.72953-1.35956-.96111 0 0zm-12.192-.11928c-3.15119-1.50422-.95072-.42475 0 0zm20.421624.004c-.76805-1.56426-5.31978-2.36487-1.21104-1.36704.47397.16468 2.71804 1.41974 1.21104 1.36704zm-.68837-.18723c-3.12172-.80155.9036-.45548 0 0zm-25.598544-.0413c-1.89869-.65227-6.31934-2.68209-1.87813-.91578.33682.21248 2.20349.82738 1.87813.91578zm-6.77121-.34844c-2.20294-.79199.79058-.15161.65617.20955l-.65617-.20932v-.00023zm2.6035.1023c-.79061-.67493.70442.37329 0 0zm23.80191.0414c-.17448-.5498.588234.064 0 0zm-28.34628-.30401c-.28429-1.58255 1.74238.28464 0 0zm30.545504.0696c-1.38192-1.33079 1.35412-.53754 0 0zm-2.156884-.14569c.18387-1.14752 1.613504-.21528 0 0zm-17.91759-.17113c-1.9622-.6508.63517-.0778 0 0zm1.7145-.0372c-.79997-.46656 1.02398.19563 0 0zm14.73791-.0966c.2076-.68504-2.00975-.77742.39359-.58164-.0947.59937.97967.67232-.39359.58164zm-15.35174-.20349c-.44719-.2978.86443.22904 0 0zm-2.39183-.17017c-3.35575-1.31414 1.26548.19851 0 0zm1.83091-.0655c-.62081-.43511 1.02822.30681 0 0zm19.695594-.0904c-1.39417-.57745-3.747664-1.17084-.57508-.52505.139-.18419 1.47306.72627.57508.52505zm-26.884874-.0947c-.99758-.73917-5.71005-2.09865-2.00763-1.08364.13037-.0633 2.9965 1.32246 2.00763 1.08364zm6.26941-.2339c-1.62044-.62901-4.10762-1.89864-1.18621-.61016-.41432-.2803 1.93467.81001 1.18621.61016zm13.31232-.0229c-.52644-1.82171.98404-.0727 0 0zm-23.42014-.0853c-.78512-.82125 2.17444-.90918 0 0zm26.50772-.24369c-3.11292-.77271 1.71011-.0511 0 .00004v-.00004zm-19.09864.035c.16812-.0885.0388.0963 0 0zm-4.06488-.19055c-.81456-.60622.94682.39148 0 0zm23.14574-.37813c-2.96453-.38203-1.50564-1.09056.381-.12535l-.17713.16353-.20387-.0383v.00012zm-7.747-.0407c.0512-.15466.1044.15069 0 0zm-.32518-.0881c-1.69035-.37355-6.92599-2.26363-2.37893-.87042.20131.0208 3.41498 1.02586 2.37893.87042zm-11.73946-.46774c-1.36355-.43719-3.91187-1.70645-.90762-.54527-.26993-.12213 1.73809.72511.90762.54527zm-6.89797-.0551c-.14684-1.34443 1.86859.0379 0 0zm4.65077-.17622c-2.27918-.62231-2.65111-1.60082-4.46993-1.07847-.66682-1.0206.41495-1.46148.32447-.95081 1.66704 1.19644 5.29046 1.89517 1.32527.46904-2.16489-1.30908 4.10788 1.64616 2.82019 1.56024zm-3.64804-.5324c-.51554-.38235.69854.20822 0 0zm-.78352-.12682c-.0758-.6485 1.07159.30047 0 0zm37.729134 13.69094c-.15592-1.93272-.0725-7.64604-.67111-7.16735.31225 2.17267-.20309 6.12437.67111 7.16735zm5.98155.0505c-1.20273-1.59269-1.04282-4.32552.2247-.92894 2.12921 1.54299-2.83272-4.85021-.79364-3.19617-.52899-1.34692-.84603-3.50987.47933-1.67795-.48639-1.64124-1.44146-4.11211-1.29703-.73492-.12955 1.75715-.17129 2.74012-.12037 4.37809-.1042.78763 1.11954 1.77315 1.50701 2.15989zm-5.56526-.57008c-.0962-2.42526-.38626.52571-.00037.00001l.00037-.00001zm6.77623-.10722c-.32776-1.25837-.55182.23273 0 0zm.38744-.17183c-.049-2.20577-2.32129-2.91976 0 0zm-3.81798-.13272c.48074-3.12307-.56027-1.76107 0 0zm-41.010774-.0845c-.21596.13537.15033.15051 0 0zm23.84051.002c-.32789-.066-.0629.0682 0 0zm21.688644-.16304c.4972-.9171-2.21433-3.39903-.67625-.71794.0913-.0115.24751 1.21423.67625.71794zm21.97991-.11455c.43592-1.69901-2.02593-6.05199-.68951-1.94528-.22727-3.62199.0164 2.61377.68951 1.94528zm-20.92643-.35864c.28041-1.51167-4.09315-8.67983-1.78491-3.42037.46392.73543.75274 3.74261 1.78491 3.42037zm1.05979-.45713c-1.07838-1.44691-2.23096-7.45593-3.25926-6.4294 1.23346 2.06291 1.3665 4.82435 3.25926 6.4294zm.69312-.23412c.0809-1.51691-4.29848-8.57746-1.87591-3.37358.6009.91238.68501 3.26758 1.87591 3.37358zm-47.733074-.45714c-.22864-.29798.0764.86055 0 0zm44.729644.16787c-.63186-2.52604-1.70763-3.27041-1.9451-5.52964-2.35159-4.60073-.53885 2.59402.82644 3.86504.17371.57658.61118 1.37439 1.11866 1.6646zm3.87943-.26058c-1.11477-2.84092-2.03071-5.99595-3.78147-8.62366-2.10375-2.77051 1.19828 3.52442 1.56945 4.40148.89733 1.28749.90848 3.394 2.21202 4.22218zm-5.23001-.29665c-.24295-1.92762-2.41154-3.43295-.75429-.26696.0225.19603.69601.56183.75429.26696zm5.9179-.0516c.0467-1.47093-3.53242-6.7568-1.36558-2.31721.57921.42891.4861 2.62839 1.36558 2.31721zm-8.78731-.0841c.2872-1.97425-.74135-.67876.00002.00003l-.00002-.00003zm9.70762-.35204c-1.16977-3.23348-2.49155-6.58273-4.49189-9.45436 1.15516 3.20476 2.24731 6.6965 4.30866 9.5059l.18323-.0516v.00002zm.64685-.27226c.47115-1.09819-4.34157-7.94181-1.79279-3.50989.71419.82411.63578 3.52166 1.79279 3.50989zm-11.46567-.2012c.0641-.81198-.29258.91219 0 0zm12.6876-.40814c-.32841-1.1856-2.8686-5.21157-2.39738-4.82036.84552.81387-1.85225-5.0385-2.86078-6.52959-2.91216-4.35409.19337 2.65143 1.20046 3.8735 1.88543 3.12366.23452.23982.049.61694 1.50145 1.43813 2.01794 7.21037 4.00873 6.85951zm-12.22512.17178c.0192-.7163-.227.19759 0 0zm-43.517184-.1488c.91902-.93287-1.11048-1.01834 0 0zm56.627194-.3148c-.4382-1.63407-3.15096-6.7303-3.56917-6.35819 1.14064 1.98576 1.72628 5.23028 3.56917 6.35819zm-13.61534-.26631c.26282-2.9296-.53328.86254 0 0zm7.72623.0984c-1.58508-2.4624-2.66767-7.68815-4.48141-8.38031.59112 2.66377 1.61555 1.5134 1.55897 3.57277 1.02613 1.55784 1.87955 3.31973 2.92244 4.80754zm-49.889374-.0741c-.1044-.15069-.0512.15466 0 0zm56.623614-.12849c-1.23221-3.54632-2.86534-7.30858-5.20774-10.41253 1.31333 3.52635 3.2569 6.84659 4.7681 10.31587l.23015.14046.20951-.0438h-.00002zm.8333-.4687c-.99749-2.88551-2.89874-5.97437-4.00062-9.03364-.82011-1.69522-3.73114-6.61459-1.56052-2.10784 1.05788 2.70493 3.14385 6.39701 4.01181 8.38375-.96387-1.57639.88395 3.66891 1.54933 2.75773zm11.22537-.7105c-.70878-2.24907.32767 2.06207 0 0zm-21.28866.29093c-.99206-2.77911-1.04003-1.09931 0 0zm10.70887-.12948c.038-2.17512-3.46698-7.10838-4.09395-7.6095 1.34685 2.42982 2.32294 5.8061 4.09395 7.6095zm.99484-.27458c2.8312-.61116 4.64978-2.34424 7.15748-3.16005.70417-1.33966 4.65665-1.63278 3.27919-4.71134-.0652-5.539-.1225-11.09877-.48833-16.63107-.93668-1.29789-2.77092-6.17366-3.95499-3.12282 1.02088 1.37238 4.00872 6.26261 3.20423 5.93339-1.21916-1.81444-2.41779-5.79629-4.2655-5.91399 1.51793 2.5292 3.30906 5.17097 4.25299 7.77529-1.8999-2.04002-2.64422-6.60391-5.11026-7.49865.39425 1.49773 3.38708 5.97751.95257 2.31756-1.13311-3.28509-2.58376-1.1546-1.62064-.24742-1.5243-3.18876-1.2328 1.2617-.63532.12624-1.28391-2.73389 1.83642 2.86242 2.11369 3.60059 1.58498 3.21466 3.85952 6.68095 5.07179 9.71673-2.96907-4.57633-4.71288-9.96611-8.37695-14.08991-2.63929-.331 3.00689 5.4164.44565 1.69967-2.0017-3.6526 1.57464 2.07671 1.89609 3.22369 1.8418 3.49335 4.3651 6.8642 5.583 10.54948-2.3672-4.70609-4.88349-9.38461-8.04378-13.63251 1.62426 4.4169-.23548-1.76411-1.651-1.09622 2.03324 3.77307 3.46563 4.5273 5.08092 7.82837 1.27949 2.83994 3.84987 6.12294 4.48175 8.72305-2.50036-4.49057-4.63936-9.24956-7.80774-13.32818 1.75842 4.23742 4.38645 8.07929 6.3327 12.2463 1.23928 1.7329 1.19929 3.15042-.0144.45748-1.95431-3.79214-3.78449-7.61416-5.99911-11.24695-.6135-1.2226-2.42239-5.64349-3.04551-3.82521.79743 1.85607 3.21769 6.57631.9148 2.35586-.31867-1.79526-3.25364-3.75212-1.57308-.7658 1.06683 3.02183 3.8556 5.74378 4.79126 8.41918-1.23366-2.13861-2.59784-3.93491-2.14592-2.91666-.8969-1.38052-3.38489-6.6354-3.53437-5.442 1.17262 2.801 3.19297 5.82774 4.27788 8.3709-2.02524-2.95922-3.33727-6.3222-5.22033-9.35566-1.94992.40345 2.51947 3.46336 1.41065 3.51155-1.11963-1.99695-2.19697-2.71468-.53072.004 1.19231 2.54993 2.94998 4.79188 4.16866 7.31491-2.51692-3.76452.904 2.32199 1.79069 3.415.64078 2.46079-2.14934-2.92774-2.75284-3.94468-.89982-1.56681-2.26262-3.07948-.68756-1.65705-.98209-2.7578-3.79546-5.33121-4.56721-7.70243.68374 1.47123 3.24209 4.60623 1.25846 1.34291-.89212-2.52995-2.58482-1.82783-.82778.35708 2.7108 5.50004 5.88964 10.7322 8.85536 16.07978-1.70169-1.57525-2.97578-5.10258-4.56134-7.34491-1.07463-1.57196-3.99374-6.55268-1.8713-2.18304 2.03054 3.37651 3.69551 6.97715 5.44247 10.48252-1.88682-1.93841-2.81165-5.66082-4.38681-8.20301-1.93805-3.38104-3.39672-7.02442-5.67055-10.20233.44007 3.11731 2.91724 6.82951 4.94088 9.73084 1.33571 2.72664-2.55418-3.55901-.175.7251 1.11982 3.11801 3.3406 6.06675 4.33722 8.99622-3.16685-5.09632-5.11806-10.90494-8.46842-15.92037-2.32883-3.51424 1.19412 3.59777 1.67784 4.59621 2.32417 3.79656 3.92349 7.90769 6.16633 11.7594-1.58874-1.06679-2.76313-5.23251-4.16552-7.39907-.95148-1.85251-3.38301-5.94046-4.11954-6.43445 2.43235 4.88604 5.06768 9.68399 7.42119 14.6031-1.54927-1.53403-2.69822-5.73141-4.49311-7.93615-1.01232-1.92373-4.37128-7.08666-1.89918-2.36159 1.78087 3.92665 4.01225 7.62415 5.85096 11.49582-2.20671-3.30677-3.91274-7.07454-6.09722-10.49426-.0738 1.06532 2.97139 6.18051 4.0678 8.72379.54818.60069.6604 2.24705 1.53679 2.28607zm6.5188-5.25195c-1.98303-2.75006-3.3786-5.88321-4.85884-8.92706 1.76443 2.95119 3.19148 6.14319 5.09218 9.01048l-.0701.15243-.16329-.23583.00002-.00002zm-1.47501-.11115c-1.03219-1.2842-1.62101-3.49851-.15972-.83566.1133.024.60762 1.23282.15972.83566zm2.07734-.19515c-1.43988-2.43148-2.57097-5.01409-4.11686-7.37905-1.20314-2.28693-1.06929-2.6918.1914-.11617 1.33698 2.19757 3.73252 6.32007 3.92546 7.49522zm.86668-.63035c-.78181-1.52831-3.80066-6.85839-2.89805-5.92506.83493 1.80571 2.81893 4.58514 2.89805 5.92506zm-3.62964-6.88839c-1.29456-2.1855.73143.37816 0 0zm5.34531-1.21844c-1.42276-2.86996-3.30244-5.55636-4.44616-8.54073 1.29769 2.72398 4.12857 6.50052 4.44618 8.54075l-.00002-.00002zm-6.03665-.0537c-.58942-1.07516.6382.61112 0 0zm-.39658-.69152c-.50358-1.10162.52818.59904 0 0zm-1.43739-.33429c-1.29519-1.31558.66914.28598 0 0zm1.09804-.33867c-1.29151-2.9976-3.56804-5.5923-5.15335-8.4768 1.64501 2.10036 3.33959 4.81469 4.8914 7.2481.15631.34542.81638 1.24386.26195 1.2287zm1.21041-.10583c-.87411-1.19298-3.21971-5.2399-1.08277-2.02696.0977.33773 1.59132 2.09163 1.08277 2.02696zm-2.57701-.0646c-.88192-1.002.2707-.3466 0 0zm-3.0001-.46006c-.0552-.29614.22363.24062 0 0zm4.06397-.009c-.0996-.21035.15404.0612 0 0zm6.71883-.99123c-.81004-1.37075-3.00476-5.13336-2.74893-5.33037.77736 1.64177 2.44148 4.00687 2.74893 5.33037zm-10.6805-1.32162c-.14249-.27381.24168.1751 0 0zm3.16126-.8459c-.34583-.54259.34181-.004 0 0zm-.30929-.5079c-.053-.27391.21474.16349 0 0zm-.2153-.28661c-1.15581-1.55704-2.3886-4.23218-.53852-1.09009-.18503-.0927 1.08649 1.406.53852 1.09009zm1.60559-.40217c-2.03351-3.81996.6005.37017 0 0zm6.55712-2.27689c-.99684-1.38825-3.49672-6.84196-1.14879-2.53853-.16073.20983 2.15849 3.20929 1.14879 2.53853zm-4.42471-.1955c-.62078-1.20168-2.77621-4.94175-.76895-1.86435-.035.009 1.32171 2.62134.76895 1.86435zm-.62932-.21578c-1.62918-2.71366.82892-.006 0 0zm-5.0082-.10813c-.49458-.49184.0981-.34276 0 0zm7.50893-4.31614c-.51704-.8934.4352.35777 0 0zm-23.90941 27.23386c-.0623-.87785-.15074.79033 0 0zm10.60338-.0343c-1.44299-2.798-2.75134-6.38956-4.39696-8.62541.36801 1.65925 1.12629 3.53722-.15445.63498-.85543-1.71118-1.35946-3.09765-1.9409-.20049 1.57199 2.48973 2.46468 5.83051 4.31323 7.84768-1.07397-2.79339-2.65086-6.3321-3.43959-7.60837-.69992-2.69313 2.18617 2.68576 2.65332 3.24494.98595 1.45386 2.10686 3.70623 2.96535 4.70667zm15.43161-.17891c-.44331-1.71172-.23941.78751 0 0zm-26.01583-.5761c.01-1.51191-.31569 1.43765 0 0zm4.18835-.17633c.1868-1.67681-2.77082-6.49862-1.41354-2.3212.38193.7606.75327 1.8594 1.41354 2.3212zm8.15332-.44166c-.55169-1.16532.093.65587 0 0zm13.5895-.24375c-.13893-.63249-.24869.56433 0 0zm-25.86567-.47913c-.0947-1.28703-.14678 1.39224 0 0zm8.76818-.23028c-.21387-.39404.0157.3478 0 0zm-4.42767-.24559c-1.2192-3.38892-1.76857-2.10245 0 0zm6.83147-1.12976c-1.80797-2.42014-2.22856-7.08277-4.72958-8.3189 1.0817 2.68463 3.50299 7.51992 4.72961 8.3189h-.00003zm-14.43826-.3024c-.63744-1.97649.10927 1.64253 0 0zm-1.11868-.71021c-1.1252-.5891-8.423504-1.62058-3.2799-.44705 1.09782.14122 2.16858.40831 3.2799.44705zm9.80672-.34923c-.50189-.73119.23346.82392 0 0zm-6.05676.18133c-.18953-.20027-.21882.23138 0 0zm-7.92747-.16957c-1.79964-.32412.41341.2601 0 0zm5.25286-.0724c-1.05503-1.43812.26341-3.53291.0846-3.80705-.74127-.55217-2.21109-.88555-1.42405-.0255-1.72644-.90144-7.700274-1.95805-2.64982-.54049 2.14801.54104 2.9098 1.5328.42659.35549-3.08083-.73107-5.988884-1.66901-9.087174-2.10183-2.57826-.4782-2.34789.12685.14797.332 2.93083.49113 5.878294 1.45915 8.819844 2.38332 4.58783 1.97825-2.54078-.76129-3.869-.81421-4.404974-1.38219-9.004324-2.15126-13.565614-2.88548-2.80442-.49194-5.30037-.41888-7.89599-.82734-1.49519-.23371-7.82862-1.02602-2.85654-.14276 6.7792 1.26618 13.63704 2.13249 20.32724 3.82085-1.10888.37585-6.35629-1.4094-8.89199-1.6188-4.81391-.76901-9.61935-1.68889-14.4024-2.61128-.51787-.14945-1.78039-.22528-2.85108-.43388 1.66227.69354 1.9145 1.58236.038.20895.45903 1.06352 2.74121 2.43205.17325.80983.27919 1.56209 3.06257 2.43428-.00023.94039-.73523 3.01466 5.05191 2.01995 7.36755 2.48223 4.27996.59528 8.53297 1.41802 12.84464 1.82905-5.02097-1.26274 3.01769.35122 4.55106.62309 3.84628.80948 7.718934 1.34039 11.619354 1.97906.33925-.11183.82778.43109 1.09386.0444zm-5.6839-1.32864c-1.61146-.0934-3.899554-1.04369-.90816-.52184.16892-.11554 1.72886.71808.90816.52184zm.58871-.31607c-1.74956-.27896-5.281404-1.7371-1.33186-.74923-.69992-1.05165-4.425004-1.82914-4.423834-1.99678 1.58047-.49493 4.442804.93165 6.473154 1.69361 2.43373.82754 2.18486 1.20825.10866.25354-3.5401-1.08017-1.35127-.2682-.55623.88941l-.26987-.0906-.00002.00005zm-2.7712-1.91569c-.35237-.38019-.0843.2457 0 0zm-3.048004 1.1568c-1.9469-.61046-6.3045-1.53798-6.9301-1.9458 2.32537.38989 5.64069 1.48297 6.9301 1.9458zm.91017-.6003c-2.1892-.72894 1.54801-.0934 0 0zm-9.779-.24353c.11229-.16315.21121.15356 0 0zm-.55033-.127c.29255-.17034.0875.20344 0 0zm-.84023-.1135c-4.69372-.8387-9.53072-1.66624-14.1246-2.59035 3.60255.0822 7.34763 1.40915 11.02789 1.80942.58536.17848 3.57215.63775 3.09671.78093zm2.38539-.95986c-2.94418-.71202-1.19138-.53377 0 0zm-2.89983-.67136c-4.62329-.98499-9.41189-2.07269-13.99052-2.75418 4.90359.37514 9.82777 1.66079 14.64669 2.80675l-.65617-.0526v.00003zm-14.40252-.21135c-2.45231-1.35933-.75266-1.43075 0 0zm67.292624 5.03177c.0992-1.84535-.42733-6.63233-.2085-1.98827.0158.5399-.25058 1.76317.2085 1.98827zm-14.8251-.41442c-1.71739-3.22611-3.1915-7.11602-5.27856-9.82727 1.23292 3.13126 2.84092 6.7031 4.96406 9.57552l.4012.53742-.0867-.28567zm-25.039564.1885c-.18616-.0602-.0173.0803 0 0zm16.967724-.16893c-1.20523-3.34639-2.03459-1.54889 0 0zm-17.459964-.24457c-2.60331-1.00116-6.39519-.99773-9.44287-1.58929-4.1844-.48849-8.31146-1.39363-12.50775-1.75549 3.04452 1.18156 6.64959.87306 9.90425 1.58406 3.98003.69667 8.10696 1.28213 12.04637 1.76072zm10.305634.0403c-.0821-.24416-.27179.24333 0 0zm-17.610664-.61633c-.20627-.15757-.2151.18296 0 0zm30.338264-.50786c-.88474-1.52509-2.43394-6.74638-3.50948-6.07252.81312 1.94834 2.43158 5.16153 3.50948 6.07252zm-29.411794-.33241c-.37257-.38464-1.58175-.004 0 0zm16.973224-.30241c.78348-.82082-1.70407.32574 0 0zm.28006-.75716c-.0923-.74227-1.16067.39168 0 0zm-32.041644-.34502c-.0584-.46214-2.09232.0237 0 0zm46.096234-.28206c-1.89899-3.39774-3.33254-7.25064-5.56281-10.34176.36668-2.59634-.16647 1.87526-.34021 2.38746-1.46197 1.74722 1.70595 4.84631.004 1.72116-.0295-1.52863 4.03247 6.81641 1.98583 2.0287-.62159-1.12809-2.6886-4.1672-1.03336-3.03834-.25309-3.20826.52377.87261 1.65197 2.22553.98496 1.5825 2.44921 4.09741 3.29465 5.01725zm-47.313474.10795c-.45964-1.12362-4.0873-.05-.99234-.0353l.87592.0811.11642-.0458v-.00001zm40.885814-.20565c-.38417-2.96847-1.86374-1.02668.00007-.00016l-.00007.00016zm-7.09947.10732c1.70065-.59563-3.33034.13229 0 0zm-36.717774-.23556c-1.81995-.79873-3.77461-.38155-.50146.0196l.50146-.0196v.00002zm-4.53476-.39056c-.517-.27216-.10284.68433 0 0zm41.423364-.0945c2.07147-.50986-3.46462-.0315-4.32016-.76102-7.700424-1.79004-15.551884-2.39174-23.349264-3.50761-3.92535-1.03217-8.03939-.94831-12.00669-1.442-2.43125-.007 2.31161 1.02682 3.35116.90794 7.69393 1.08718 15.44377 1.7194 23.1338 2.83217 4.346634.76293 8.738324 2.33355 13.191154 1.97052zm-40.073734-.35428c-.18685-.61919-.80562.36632 0 0zm.76629-.0446c-.0575-1.15935-1.21399.3149 0 0zm47.037364-.21019c-.42501-.46289.20618.64263 0 .00002v-.00002zm-17.52746-.002c-.51834-.62566-.50698.4073 0 0zm10.04501.0908c.10039-.52667-.89036.0622 0 0zm.78839-.13187c.42922-.82103-1.72632.24678.00001.00005l-.00001-.00005zm-12.019874.0146c-1.73786-1.05689-.87229.19768 0 0zm10.015754-.0177c.42667-.50031-1.43988.30435 0 0zm-1.0388-.2967c-.15995-.4755-.72991.18642 0 0zm9.36626-.10638c.26513-2.48137-2.0502-1.58871-.44079-.3093l.31679.3752.12398-.0659h.00002zm-5.94142-.0397c-.7746-.4644-.61355.15869 0 0zm-42.807434-.12503c1.03735-1.32444-4.01625-1.15819-2.04145-.002.68968-.10393 1.40879.34272 2.04145.002zm37.864844-.11494c3.46314.13126 1.42734-2.19953-.2019-1.61207 3.78601 1.57277-5.60423-1.73764-1.7086.52832-3.94597-.97805-7.951594-1.82119-11.983374-2.29768 3.50627 1.04606-2.69318-.33261.4794.53869 4.43212.71575 8.756954 1.88552 13.103084 2.93178l.31136-.0889.00003-.00015zm2.10927.0493c-.15747-.15886-.23152.15487 0 0zm1.22469-.14016c-.59651-.83538-.26869.6788 0 0zm13.52847-.009c-1.13801-2.84117-3.26681-6.23654-4.3458-8.53611-1.31767-.98471.93887 3.43215 1.80578 4.76465.83456 1.26231 1.56669 2.60939 2.54002 3.77146zm-11.491-.16521c-.81061-.66023-1.56492.16864 0 0zm-19.779584-.01c-.20121-.3842-.54483.12445 0 0zm-.61389-.12538c-2.37469-1.15761-2.20954.0212-.00001-.00003l.00001.00003zm18.549474-.0796c.85973-.47283 4.74277-.84781 2.24359-2.08009-3.94676-1.31365 4.02197 1.04335.35983-.86475-3.55489-1.17331-.3678-.54243 1.149.26982.96225-1.65392-5.37075-2.55396-1.04315-1.51939 2.88263.99747.30343-1.36881-.80664-1.36654 1.89306 1.19223 3.59707.0776.6954-.60028-.91652-.51553 3.67435.70139.66456-.521-1.20829-.96614 2.37466 1.11964.92128-1.3793-1.97278-.66138-5.22041-2.13739-6.47876-1.89666 1.3486.40682 7.10469 2.46343 5.61605 2.31613-2.68972-1.2147-5.58954-2.03243-8.28869-3.04299-3.22976.04-6.494014-1.63552-9.637604-1.35849 1.31456.23381 6.765134 1.43649 5.609174 1.43187-1.62075-.60039-6.788554-1.22186-2.159004-.26877 3.920864 1.09329 8.024584 2.08483 11.735744 3.55758-3.1104-.60033-6.24031-1.8934-9.39555-2.62642-1.29771-.85856-7.422864-1.17888-3.003044-.19832 4.041664.90305 8.132204 1.97136 12.021104 3.25956-3.47261-.61964-6.96393-2.03727-10.514-2.72091-1.435164-.4233-6.198874-1.20755-2.126374-.15329 4.540604 1.28629 9.079884 2.71044 13.518384 4.24417-2.92511-.15655-6.31283-2.13958-9.44223-2.8182-2.863314-.88864-5.799304-1.58689-8.321794-2.36957-2.04477-.34986-4.0175-.0404-.92805.43858 1.86965.13843 8.151044 2.5211 3.0855 1.00482-2.39489-.24623-5.36347-1.63926-7.49029-1.04679 3.75184.85571 7.53766 1.45529 11.264384 2.26003 3.43362 1.21384 7.86031 1.51285 10.65102 3.47808-4.04274-1.59957-8.68461-2.61568-12.631704-3.71767-2.59575-.1553-6.17956-.97026-9.13023-1.60331-2.19315-.44039-3.09116-.0228-.26062.31993 7.07086 1.46906 14.145624 3.06133 20.979594 5.44443 4.08621 1.9421-3.13645-.98442-4.49573-1.22634-6.122714-1.73853-12.375354-2.86093-18.602664-4.17876-1.32044.6522 4.43698.87445 5.66817 1.53437 5.39918 1.07285 10.745834 2.31841 15.975944 4.11673 1.46762.20239 4.77485 1.75627 1.30611.61585-2.43248-.37655-5.02698-1.70851-7.76816-2.37758-2.791244-.45704-5.541514-1.21319-8.551334-1.7829-3.19184-.65614-6.42341-1.60717-9.70479-1.51155 1.92615.70237 6.69272 1.3832 9.72595 2.18248 3.53873 1.01309 6.39908 1.04202 9.793764 2.28766 2.17803.78474 5.79074 1.45072 6.46612 1.48798 2.21606.41745.69552.74985.0198.63484 1.35796.98744 5.71683 1.65407 1.71129.98025-2.88683-1.19949-5.58936-1.92806-8.52023-3.01065-2.701504-1.08771-4.609114-.76972-7.378964-1.54707-4.79386-.86601-9.53198-2.34754-14.38961-2.7154.5657.79814 6.5054 1.09072 8.95322 2.0002 6.62758 1.53466 13.296284 2.75862 19.727614 5.02979 1.78273 1.19616-3.938-.85189-4.9588-1.25056-6.783064-1.94858-13.708064-3.24708-20.618994-4.61199-2.68654-.57876-3.27944-.29876-3.73189-.0479-.32998-.03-1.55013-1.05027-1.74203-.0336 2.09296.0493 6.29292 1.17273 7.32325.8862.0854-.31738 5.31106 1.15329 7.32427 1.41541 1.58724.44902 4.86721.59532 2.43763.7569 2.88443 1.21851.76153-.81645 2.98104.51295 3.960784 1.04959 8.166314 1.80542 11.768674 3.77425-.3086.13445.40495.38684.42347.20613zm-2.18016-3.2385c.14065-.16657.31276.15951 0 0zm-24.105314-3.72347c-1.45275-.36826 1.43672.0922 0 0zm-1.72261-.1923c-2.47287-.5544 1.73323.0887 0 0zm29.172254-.68496c-2.56257-.98665-7.81838-1.93549-8.8265-2.57557 2.54396.78187 8.43272 1.6495 8.8265 2.57557zm-13.758034-2.89221c.0637-.0905.10879.1648 0 0zm3.819974 10.34099c-1.48509-.60983-7.186244-1.37885-2.634944-.26482.867164.0884 1.763504.31338 2.634944.26482zm-12.435114-.11594c-1.15026-.51302-2.18045-.0422 0 0zm28.494394-.4345c.16689-1.48397-1.22258-.44342 0 .00003v-.00003zm-48.729914-.15997c.69957-1.96051-.77379.19644 0 0zm49.220524-.34371c-2.05014-3.81315-.0562 1.42973 0 0zm-48.077334.11064c-.18143-.69254-.18366.69104 0 0zm26.15056-.0296c-1.50277-.74191-6.79066-1.26981-2.54331-.50039 1.35073.51446-.0143.28517 2.54331.50039zm7.250444.0124c-1.71387-.85863-2.37917-.129 0 0zm2.83633-.063c-.20504-.27871-.1884.20617 0 0zm-12.667394-.18181c-1.55342-.76643-3.84157-.52337-.80228-.0723l.69912.11778.10316-.0454v-.00004zm10.000394-.2408c-1.81278-.61082-3.33895-.90787-2.33883-1.15558-3.343844-.82892-5.160564-.70181-8.710164-1.9389-5.59456-1.26546-11.36775-2.21623-17.10317-2.20206-2.58311.63294 6.66059.69259.94971.67124-1.33116-.49723-4.52246.002-1.19097.0594 3.71953.0626 5.41727.035 9.45191.6964 3.53962.84893-3.57923-.34771-4.63873-.32047-1.5857.2304-7.46468-.81809-6.79832.22457 1.89008-.0345 7.19389.28076 7.10817.34328-2.98317-.91771 3.63176.5166 4.5482.79826 5.14092 1.05587 10.34156 1.81024 15.517924 2.65238-.37877-.68389-4.150854-1.58017-.78342-.78258 1.31089.38034 2.64463.72602 3.98769.95403zm-24.962004-4.62519c.38476-.0633-.17732.13849 0 0zm10.69567 4.5565c-.79067-.16372.39368.21135 0 0zm-10.4775-.0469c-1.58399-.2023.42517.23531 0 .00004v-.00004zm10.10708.005c-1.67333-.66928-2.84216-.0855 0 0zm38.047084-.1905c-.22949-.31444.0307.31601 0 0zm-50.757664-.0192c-2.10091-.59854-2.91498-.25905-.15875.0581l.15875-.0582v.00013zm10.49744.0208c-1.27315-.86576-1.98858-.003 0 0zm3.61958 0c-1.87866-.86393-6.10403-1.09651-1.70601-.22791.56031.0882 1.13774.28964 1.70601.22791zm-18.39268-.12866c-.59208-.0594.26826.11071 0 0zm66.812324-.01c.0222-1.13298-.30059-1.49764 0 0zm-70.960994-.11716c.7622-1.33713-.78444.42263 0 0zm17.0987-.0529c-.4141-.16014-.0536-.0782 0 0zm6.07699-.0347c-1.2532-.38395-1.51586-.013 0 0zm30.459994.0347c-.11606-.41622-.17231.0429 0 0zm-37.189184-.0741c-2.59352-.6864-2.18112-.0179 0 0zm42.490714.0106c-1.58123-2.28002-2.89408-6.68632-4.65461-7.71372 1.28073 2.67028 3.03956 5.48983 4.65461 7.71372zm-55.388694-.10934c-.42657-.35785-.0874.34254 0 0zm18.2358-.10869c-.75088-.39943.25502.32405 0 0zm2.28218.0381c-1.01711-.65942-4.95874-1.12189-7.0485-1.61152-1.85465-.38439-3.61278-.45751-.69996.17062 2.52028.75349 5.16022 1.11031 7.74846 1.4409zm31.175224-.22225c-.80439-1.46377-2.53446-6.9839-3.46433-5.49639.93238 1.76602 2.54052 4.63742 3.46433 5.49639zm-41.208994.0118c-.74378-.47198-1.58788.10118 0 0zm2.07128-.33372c-1.22582-.47861-1.13557-.0141 0 0zm2.5544-.0168c-.2477-.0957-.0177.16008 0 0zm-2.82575-.41275c-.64674-.13709-.13359.14265 0 0zm-6.18066-.0795c-1.54794-.36553-5.41899-.30017-1.68993-.0301.56226.0233 1.12782.10302 1.68993.0301zm3.03645-.0475c-.0101-.49275-5.11849-1.04124-1.11029-.10249.3465.002.77361.34748 1.11029.10249zm1.97986-.00042c-.59634-.41893-.58597.17952 0 0zm2.32852.00042c-3.29977-.96603-6.73361-1.29243-10.10777-1.74969 3.29318.74393 6.71983 1.4525 10.10777 1.74969zm-13.54666-.254c-.21122-.15356-.11229.16315 0 0zm3.57687-.22225c-1.40812-.53397-4.85918-.86142-1.52819-.13619l.72497.14213.80322-.006v.00006zm2.03229-.0693c-.82791-.37781-.49803.14975 0 0zm-5.207-.0455c-.72408-.45535-1.0753.28222 0 0zm45.613584-.0757c.90572-2.96774-.38247.14212 0 0zm-47.560914-.0318c-.0519-.22869-.28959.23793 0 0zm.97367-.0212c-.42866-.88301-1.27903.56175 0 0zm44.957994 0c-.10807-.15175-.10807.15175 0 0zm1.24883-.3175c-.42069-.009-.009-.0924 0 0zm-40.957494-.0972c-1.5018-.66716-4.51687-.69493-1.11238-.0623l.54292.073.56946-.0108v.00015zm-3.11362-.0881c-1.01159-.29665-.27302.16383 0 0zm8.40528-.25845c-.42631-.47398-.33275.36553 0 0zm-2.667-.0403c-.64009-.29265-.88773.14701 0 0zm-6.30766-.46852c-.10816-.15175-.10816.15175 0 0zm-1.06067-.49348c1.53768-1.41366 1.87433-3.13783.0956-.72906-.0229.0843-.73493 1.19887-.0956.72906zm46.426964-.15952c-.0813-.70013-.15787.86487 0 0zm5.0527.23909c-.2444-1.90947-3.42229-5.10852-1.22759-1.73419.40247.55841.66297 1.31798 1.22759 1.73419zm-35.708164-.0941c-.16276-.15166-.10849.15668 0 0zm-15.0652-.27911c2.39486-.60103 3.26548-5.10213 2.73646-6.10176-.0827 2.15745-1.94691 5.68417-2.73646 6.10176zm5.89885-.81992c-.87587-.39067-.69092.18609 0 0zm-1.91253-.11036c.32709-.35077-.68573.14305 0 0zm1.61619-.32953c.30738-.49824-1.067.33979 0 0zm-6.03131-.87866c-.36167-.49791-.13163.67373 0 0zm42.968564.17354c-.37341-.81364-.95116-.33348 0 0zm-41.687814-.26285c.37573-1.08532-.50369.57653 0 0zm40.989084.0927c-2.63265-2.72825-6.97723-2.37863-10.40143-3.57726.35499.35185 4.58417 1.38288 1.11691.62962-1.5491-.62221-7.014804-1.0832-2.57791-.35899 3.1336 1.26355 6.45865 1.36477 9.75504 2.27664.81661.25918 1.01422 1.18967 2.10739 1.02999zm-28.921874-.71452c1.52472-.70614-2.15148.21358 0 0zm26.572374-.0463c-.10434-.15067-.0513.15464 0 0zm2.39183.003c-.21767-.29362-.0665.17352 0 0zm.69398-.0271c-1.38548-2.88133-.66589-.21269 0 0zm-.94798-.1886c-.68793-.78655-2.94571-1.41804 0 0zm4.20159-.26093c-2.48476-.93732-2.92992-6.25938.90692-5.22636 2.88675 1.12218.46358 4.02049-.0189 4.49387 3.61172.126 1.26531-4.68779 1.21971-4.97236 2.65881 1.10344-3.26874-1.40869.0208-.5776 1.13011 1.68313 2.88019 2.57931 1.01472.14925-.91719-1.88734 2.62136 4.51963 1.4892.80913-2.02503-2.7974.0261-.15023.96928.92587.21065-1.81757-2.56136-4.33264.0653-1.39382 2.31222 3.52381-2.00411-4.51983.52953-.68085 1.29783 4.61536.69185-1.01946-.21253-1.43338 1.17511.92343 2.39397 5.18622 1.66773 1.39159-2.46877-4.5543 1.97345 3.87664.90876-.20813-1.11969-1.7634-1.69028-2.7161.12214-.38605.73586 4.29584 1.59423-.43304-.43621-1.6397.84588-.12185 3.09866 4.81181 1.67028.75219-1.92664-2.82258 1.12733 1.63141 1.04669 1.93334 1.93925.2207-3.11506-5.46035-.0206-2.24767.63844 2.79256 1.84834 1.7426.52184-.23997-2.69819-3.39099 1.54524 2.14826 1.17614 1.45406 1.12853-1.09989-3.38068-4.39165-.0602-1.60095.91824 3.38187 1.6024-1.51315 2.60845 1.12263.82666-.49807-1.54026-3.0364-2.26488-3.59379 1.54628.54925 3.88403 5.21584 2.35433 1.16385-3.39473-2.70348.54288-.43163 1.15277 1.40821.67929-1.60952-3.69509-4.4285-.46097-2.02235 1.00706 1.1638 1.74172 2.78718.8131.16452-2.75814-3.32256 1.27134 1.16281 1.23295 1.19381.14661-1.52598-2.93803-4.03864-.67091-2.28939.78788.94564.61492 1.83288 1.54418.87066.20929 2.78954 1.27867-2.26497-.79536-2.3666 1.18495-.0801 2.30156 2.72622 2.00279 1.14105-1.86382-2.53488.1091-1.05587.59073.65132-.26111-1.81763-1.41813-3.99493.42856-1.75491-1.85454-3.64913 2.39459 4.02081.60474-.40911-.27532-2.74211-4.17604-1.13175-5.95027.0764-2.25982.71259-4.8165 1.58482-6.98885 2.76498-3.60148 1.3913-7.35811 2.63964-10.57091 4.82602-1.45362 1.69873-.81377 5.67652 1.78893 5.75024zm7.67997-4.93091c-.28338-1.00182.54207.0445 0 0zm5.80978-3.22079c-.41015-.78094.40014.39502 0 0zm-.38445-.67741c-1.73277-1.77113.80554.1339 0 0zm.76781-.24539c-.16831-.63697.50782.27994 0 0zm-.46318-.632c-.0801-.21563.19847.19464 0 0zm-.17253-.19899c-1.54831-.81233.40427-.21466 0 0zm-1.20586-.13878c-1.34145-.47193 1.03518-.16217 0 0zm-.60398-.25921c-.2677-.32477.46114.10421 0 0zm.80677-.18892c-.4676-.6239.85858.13991 0 0zm6.74071-.7617c-2.40942-1.60448-1.21234-2.74847 0 0zm-.86696-.46176c.0987-.14532.12183.0808 0 0zm-.67898-.44671c-1.22418-.79897-.33426-.2757 0 0zm2.11831-1.50372c-.33913-.60272.68107.49393 0 0zm-23.5051 13.62277c-1.5423-1.34794-1.84689-.86164 0 0zm5.9221-.30958c.42397-.75711-2.21385.42338 0 0zm-47.604164-.19185c.93717-2.39741-.79348.69965 0 .00001v-.00001zm23.69829.13185c-.13948-.20557-.94941.0136 0 0zm15.571174-.26419c-.57981-.45308-.13435.23931 0 0zm-15.189124-.10848c-1.54932-.99315-3.11486.2229 0 0zm14.606164-.0536c-1.17579-.58973-1.1693.0188 0 0zm-20.450474-.13077c1.75359-1.1659-2.5616.2391 0 0zm6.60128-.0176c-.68081-.68068-2.81376.10332 0 0zm.38719-.0203c-.29449-.11263-.0193.13869 0 0zm20.489334-.0212c-.70885-.75624-1.00446.0554 0 0zm-6.33905-.16626c.2955-1.71704-1.78831.53203 0 0zm2.46578.0601c-.14449-.66009-1.37813-.27023 0 0zm-21.103394-.0835c-.91265-.24675-.2782-.0865 0 0zm28.910064-.1002c1.56702-.54077 6.52203-3.80542 2.81407-1.94967-.62894.23767-3.90417 1.45613-2.81407 1.94967zm-48.616234-.0527c1.12922-1.61633.73592-6.08836.31486-1.76636.15953.26766-.76999 2.0771-.31486 1.76636zm30.882174.0906c-1.53624-.80098-6.850544-1.19086-2.54635-.44252.84058.18714 1.67848.4299 2.54635.44252zm21.54766-.0995c-.3224-.97108-1.19384.14399 0 0zm-33.909004-.0501c.31639-.48525-1.06131.0447 0 0zm22.733004-.0861c-.90538-1.98029-.70982.0971 0 0zm-23.495004-.0203c-.20831-.24984-.60035.24689 0 0zm4.11087-.0569c2.14872-.38371-5.444-.69077-1.44387.0151l.5715.0381.87237-.0533v.00007zm23.998464-.0489c.26486-.91986-.62217.39086 0 0zm-2.15915-.0106c-.30482-.97131-.26388.20989 0 0zm-5.84184-.15447c-1.50869-.90711-1.52831.31133 0 0zm7.17434-.12941c-.57825-2.29233-2.95651-1.71556-.59151-.58535.28618.10552.21334.668.59151.58535zm-10.35993-.0966c-.94669-.53245-4.57636-.48868-1.0901-.072l.67328.12943.4168-.0573.00002-.00007zm-16.192504-.0345c.57168-.36479-.72347.12487 0 0zm21.029084-.12812c-.65005-1.3246-2.13512-2.19859 0 0zm-1.10066-.0178c-.74785-1.58593-.45288.53248 0 0zm5.715.0688c-.43273-1.26726-.81665-.30573 0 .00044v-.00044zm-21.717004-.16947c-.34968-.88613-.46954.69313 0 0zm23.657124.0477c-.17374-1.09593-.44149.33817 0 0zm18.86825-.36148c.61723-2.05939-3.89482-6.10239-1.2454-2.16907.44463.45809.85221 2.04378 1.2454 2.16907zm-22.13588-.20409c-.21843-.52521.0787.65257 0 0zm-12.81182.13165c-.38152-.28684-.99738.12475 0 0zm-7.712394-.12391c1.24618-.42358-1.82198.23283 0 0zm22.510954-.30778c-1.71282-3.02537-.71534.8043 0 0zm-42.643354-.0122c-.24565-1.41721-.27094 1.29814 0 0zm29.818094.29843c-1.00596-1.98991-2.26163-2.93843-.42628-.26752.001.15804.25349.45784.42628.26752zm14.10892-.0995c-.80782-2.4156-1.20124-1.1276 0 0zm2.50443.0733c.47481-.94577-.70635.23705 0 0zm-24.642734-.08c-.0751-.67597-1.64221.0566 0 0zm25.155664-.0301c.25064-1.10735-.55487.51579 0 0zm-18.43009-.0687c-.57185-1.13335-3.01016-4.26227-.98446-1.08973.29603.1644.54442 1.41864.98446 1.08973zm17.4969-.0412c.32521-1.74767-.62613.49525 0 0zm-48.521624-.1905c.0957-1.04897-.43008.61474 0 0zm28.228234.10583c-.46426-.23765-.40311.20523 0 0zm15.02585-.13925c.14722-.77875-.38623.62092-.00003 0h.00003zm6.93431.0652c-.28673-.56316-.41224.59575 0 0zm-24.172334-.1555c-1.25479-2.34117-1.3823-.0389 0 0zm19.621504.0765c-.30456-.78606-.61703.099 0 0zm4.83716-.14329c-.0971-.80764-.56465.17628 0 0zm-25.308794-.0151c.0628-.84572-1.16247.0816 0 0zm26.849354-.20896c.10671-.30289-.49225.22048 0 0zm-10.56096-.0708c-.18632-.0349.13029.1914 0 0zm.77778-.20324c-.13619-.81453-.0571.93059 0 0zm-40.369914-.16364c1.09504-1.66683-3.31615-7.66322-.79436-3.52725.46477.47685.48963 4.68976.79436 3.52725zm49.269714.29713c-.17217-.30902-.23887.34087 0 0zm-7.5715-.13827c-.0978-.32392.0289-.0971 0 0zm8.85049.0242c-.36044-.19533.0223.25866 0 0zm1.8415-.0758c1.51822-1.55188-2.13751.52639 0 0zm-29.654504.0334c-.13151-.15341-.0803.21314 0 0zm26.754674-.16684c-.3961-.46864-.62742-.29917 0 0zm-9.54329-.12746c-.63457-1.59518-3.52904-5.19029-1.27796-1.56029.29325.28383.86066 1.9792 1.27796 1.56029zm23.56098-.27836c-.17051-2.1287-3.05134-3.25707-.65484-.57841.22651.13439.5465 1.72289.65484.57841zm-17.02934.16475c-.28687-.10347.20999.38439 0 0zm6.72789.0622c2.41465-.46177 2.37395-1.75265.29213-.71135-.54533-.0343-1.15963.80815-.29213.71135zm.43129-.39472c-.11559-.51507.2937.25696 0 0zm-31.093844.25972c-.0565-.90087-.30805.34439 0 0zm19.580314-.004c.34297-.5443-.66711.298 0 0zm.90028-.19472c-.0666-.6302-.56924.21794 0 0zm13.06972-.73096c1.96941-.53516 3.18656-1.97863.26169-.65326-.56077-.0605-1.46762.94456-.26169.65326zm.27789-.45891c.0461-.10656.0913.18894 0 0zm7.24188.069c.47791-1.97839-2.8913-1.84287 0 0zm-10.33628.0478c.0906-1.09564-.64772.0442 0 0zm-15.17516-.60863c-.82909-1.99645-2.85994-4.30013-.78158-.91413.25724.12429.50049.93895.78158.91413zm21.05662-.2649c1.16732-.25488 5.60518-2.38505 3.96658-2.10412-1.47719 1.30202.62455-1.14433-1.59293.58903-.42036.29712-4.17459 1.16731-2.37365 1.51509zm-3.03772.003c-.0524-.43059-.30858.24534 0 0zm-58.743564-.12779c-.27723-.35628-.14314.25937 0 0zm59.326704-.0455c.25843-.59664-.63877.16516 0 0zm.70407-.18992c.49189-1.42996-.73004.1626 0 0zm6.53651-.1969c-.2964-.0834-.10402-.0485 0 0zm-5.9464-.24311c.0998-.47983-.35443.21439-.00002-.00001l.00002.00001zm6.01903-.1341c.29133-1.1535-.72511-.0222 0 0zm-19.33647-.40689c-.0572-1.21625-3.42363-5.06562-.51197-1.67062 2.44327 3.52833-1.56801-3.04385-2.04418-4.27367-.95182-1.6341-2.79603-5.215883-.61897-1.46141 1.02488 1.53008 3.58684 7.4005 3.99334 6.28378-1.12742-1.21073-2.72944-5.67107-.81214-1.76665 2.38387 3.43953-2.33973-4.56005-1.98514-4.46885 1.17425 1.58119 3.0995 6.39675 3.87633 6.10643-1.01782-1.41165-2.59901-4.49624-.58095-1.25662 2.76048 3.75229-1.92434-3.68988-2.43125-4.9369-.88443-1.296192-3.41759-7.06256-1.31124-2.92934 1.72158 3.05479 3.26514 6.56394 5.39065 9.15621-.94354-1.3334-2.91776-5.58007-.75113-1.57825 1.91771 2.33524-1.32662-2.69844-1.99323-3.91835-.96623-1.705182-4.32183-7.69269-3.47471-6.968053 1.97708 4.222375 4.47366 8.191613 6.86442 12.169513.59272-.7419-2.58215-4.40416-.10078-1.21103-.043-1.03036-3.1943-5.56091-4.26834-7.929578-.92515-1.68518-1.73075-3.872613-.25571-.94585 1.76819 3.178874 3.76081 7.002078 5.60895 9.660448-.002-1.21411-1.9212-3.33145-.75617-2.38269-1.58551-3.19914-3.34106-6.368757-4.57197-9.702434 1.9639 3.718981 3.67864 7.694534 5.77461 11.399514.60781-.46267-2.11464-5.52077-3.1771-7.540518-1.34011-2.61798-1.3365-3.184039.0618-.280191 1.71181 2.140699 2.38891 6.793109 4.32151 7.669839-1.01952-1.74464-2.46097-5.48267-.59898-1.70083 2.20217 3.88604.75948-1.11609.014-2.36241.94617 1.78342 2.60288 5.46481 1.00697 1.42815-3.25574-7.098775-4.99962-14.83865-9.0886-21.546016-.77747-1.681799-3.5394-6.881439-4.0136-5.272054 2.32539 1.307444 3.49592 7.181656 4.62732 7.271032.93715 2.543726 2.68978 5.491076 2.55352 6.257337.81818 1.541577 2.48088 6.599125.66487 2.12021-1.05274-2.399847-2.86163-7.085628-4.06592-7.848936 3.03166 6.002674 4.88151 12.542065 8.10152 18.471057 1.14125 1.96456 1.67791 3.92211.19723.98893-1.79254-3.19427-2.99591-6.757459-4.97187-9.797344-2.53749-3.468787-4.23029-7.494801-6.80236-10.91127.0636.645623 2.12665 5.283847 1.44459 2.794267.6735 1.60316 4.25848 7.414199 3.47858 6.687501-2.09365-3.400854-4.28521-6.771148-5.78518-10.482272 1.09402.473343-4.1507-7.165552-2.13077-4.933811 1.73025 2.606293 2.87454 5.292629 4.70205 7.916335 1.86208 2.982453 3.4068 6.202808 5.53738 8.990234-1.54359-4.623367-4.69332-8.50571-6.947-12.796371-.77525-1.554092-4.8793-7.291346-1.48142-3.206201 2.22452 3.973333 4.48358 7.948712 6.85679 11.823689-1.67628-4.37575-4.89003-7.979711-6.62487-12.351166-1.83699-3.465319 1.91151 2.80346 2.31171 3.892161.84445 1.701167 2.91702 5.47234 1.42509 1.466711-.95511-1.249505-4.42525-8.001337-1.78218-3.473901.95695 1.642353 2.85445 4.57804 1.19276 1.273349-1.12625-3.424742-3.84521-5.838689-7.51452-4.345026 1.29006 2.81454 3.18893 6.473905 4.70283 9.661029.63747 1.433936 3.4908 6.402177 2.77607 5.703016-2.43605-4.380429-4.60037-8.917185-6.91048-13.347318-.52128-2.052747-3.05196-2.426873-.84466-.192564 2.17089 2.954168 2.82646 6.785339 4.86632 9.886897.86919 1.820909 3.24341 5.338785 3.35252 6.191251-1.46718-2.07519-3.53944-6.401242-4.32005-7.242962.58055 1.198405 2.94116 5.742964.90603 2.320475-1.45715-3.386379-3.51458-6.524221-4.69899-10.009336.65286-1.02943-3.47701-4.453003-1.19645-1.223979 1.1968 2.950787 2.65314 6.174994 4.39065 9.096718.894 1.74926 4.46601 8.557139 1.65757 3.624416-1.79025-3.973971-4.60045-7.537998-5.81467-11.728853-.27917-2.100243-3.28932-3.285441-.87393-.532723 1.30433 2.830982 2.44942 6.064185 4.14221 8.885473.88214 2.002491 2.93009 5.431819 3.3337 6.575367-2.77503-5.04749-5.70044-10.078945-7.76023-15.457178-1.13781-2.477041-2.60274-1.762796-.65595.312936 2.32892 5.539811 5.3541 10.817368 8.02607 16.215729-3.07978-5.303117-5.95232-10.793819-8.43729-16.375794-.54593-1.820881-2.64865-2.529713-.8347-.218878 1.53648 2.533796-2.94768-3.866338-1.07466-.231451 1.81843 1.65431 2.13387 5.130082 3.61968 7.602682 3.87741 7.871658 7.9914 15.718982 12.84288 23.002232l.2514-.0953.00039.00003zm-2.33781-7.79002c-.45562-.802511.37453.23444 0 0zm-.30734-.52778c-.97422-1.480563-3.68342-6.41481-1.13484-2.254247.21981.465726 1.45543 2.369657 1.13484 2.254247zm-2.0123-1.436886c-.8166-1.182375.41557.219803 0 0zm-.32413-.546604c-.14101-.215458.18919-.06063 0 0zm4.48327-2.587445c-2.39839-4.376221-4.40688-8.970476-7.14408-13.156146 1.08003 3.023204 4.262 7.705856 4.75497 9.577913-2.27783-4.282773-4.95562-8.601868-6.65654-13.014267 1.63965 1.551998-2.96654-5.049432-.25681-1.52364 1.83716 3.192816 3.23958 6.665721 5.20422 9.85023 1.28388 2.592705 3.41076 6.344861 4.09824 8.26591zm-7.2658-13.414348c-.48846-1.124506-.84309-1.166703 0 0zm2.7541 13.269894c-1.76478-3.003779.006-.562383 0 0zm-1.6111-.121191c.0513-.154745.10434.150776 0 0zm6.90033-.378502c.43241-.127424-.0315-.04131 0 0zm-7.33979-.364585c-.47986-.988735.70606.935017 0 0zm7.11102-.01248c-1.51108-2.524105.32787-.616166-.00001 0h.00001zm-3.2445-.137061c-.16204-.365938.36008.272159 0 0zm5.61816-.19393c-.17103-.148597.1458-.104752 0 0zm-7.17375-.254346c-.73188-1.271573.61479.623618 0 0zm-2.68827-.04551c-2.7192-4.708776-5.77566-9.32972-7.53076-14.504874 1.56789 2.984819 2.95193 6.368858 4.71813 9.371957.89811 1.501158 2.50755 4.246451 2.81263 5.132917zm2.30874-.578632c-.47345-.735515.4165.146279 0 0zm.64527-.223013c-.94358-1.288858-1.93149-3.69753-.33148-.765596.0591.108845.83176 1.395694.33148.765596zm.97879-.884642c.029-.194396.13589.253006 0 0zm18.07183 16.133111c-.48422-.15672-.006.0555 0 0zm-64.071494-.0616c-1.10517-1.46439 1.65976-3.77822-.82247-1.73944-.36524.44416.34695 1.91915.82247 1.73944zm42.298754-.054c-.1654-.0675.14312.19526 0 0zm8.79757-.43533c-.56891-1.36109-.9757-.0351 0 0zm-49.402994-.65605c-.61971-2.06275-.53318.12429-.00001 0h.00001zm65.433114.0605c-.0329-.36929-.20418.24297 0 0zm2.07391.004c1.25247-1.58277-1.10207.21994 0 0zm-2.67655-.25827c.30817-1.59012-.39936.24659 0 0zm2.0771-.29704c.73323-1.5676-1.39291.55252 0 0zm1.49862-.0819c1.01957-1.44988-.92764.0754 0 0zm-68.236864-.0362c-.14903-.36539-.18657.1937 0-.00033v.00033zm39.497004.0241c-.25356-.57443-.13291.20324 0 0zm26.4315-.0398c.13503-2.51951-.87647-1.74393 0 0zm-40.172914-.65181c-.0616-2.962-.30137-1.56398-.11054.45444l.0548-.15188.0558-.30256zm41.628574.46131c.50207-1.27858-.71558-.40798 0 0zm-2.54406-.42414c-.077.0513.0775.28198 0 0zm-65.644434-.12014c-.35107-.45538-.15384.49112 0 0zm68.877834-.0484c.36986-1.49053-.82885.073.00008-.00001l-.00008.00001zm-1.24338-.13473c-.46116-.22991.0914.32942 0 0zm1.99384-.19387c.59982-2.19336-2.36244-4.88157-.28376-1.60932.28327.27627-.41633 2.23051.28376 1.60932zm-1.38099-.61909c-.8659-3.61676-1.17235.23975 0 0zm-11.7751.23948c-.53637-1.63231-2.66821-6.404631-.62333-2.23015 1.68624 3.13608-1.08163-3.027834-1.45209-4.561643-.68593-1.398783-1.66293-5.538924-.40707-1.762443 1.14035 2.368486 1.9407 7.030906 3.49323 7.939356-.93224-2.47061-.94391-4.55779-2.04518-7.236239-.33571-2.062218 1.51526 3.782349 1.76803 4.696389.39633 2.44691 1.94064 3.04628.48273.33201-1.63288-3.721584 2.40596 5.01811 1.05271.39079-1.44061-3.043557-.44057-1.72776.43646.52713 1.54235 1.76072-1.33931-3.196993.38309-.97478.95294 1.47926 1.36544 1.60026.50903-.21166 2.6937 3.85332 3.41243-3.798624 3.93799-5.804216.91577-4.992624 1.65509-10.010665 2.64375-14.990076.67565-3.643097-3.49177-3.804664-5.99529-4.180291-1.90378-.614443-3.60236-.555177-1.41301 1.199893 1.34175 1.214916 1.96168 3.181526.16433.708342-1.17393-3.367838-4.66085-2.589645-7.56339-2.990636-2.42318.487414-9.52659-2.151529-6.15229 2.315724.7104 1.128762 2.95058 6.286687 1.93058 2.63972 1.50905 3.775231 3.10642 7.515933 4.74159 11.240943 1.61952 5.023707-.97774-2.174784-1.89158-3.749589-1.40147-3.496739-3.21317-6.746845-5.07375-10.016447-.12716-1.304981-2.02103-3.971088-2.4657-2.231162 1.74574 1.016009 2.93709 5.189899 4.52095 7.33308-.25427-2.106857 1.64857 3.944243 2.26825 5.104698 2.18214 5.521044 4.04038 11.322854 6.61258 16.592427l.13723-.0813.00015.00009zm4.53013-2.78947c.73757-1.25296.57599.40422 0 0zm-.42334-.53841c1.64958-2.341036 2.12338-.90099 0 0zm-.68409-.37508c-1.21666-1.16736 1.83206-2.371306.087-.15702.3779.0866.20702.40749-.087.15702zm-2.34344-.88859c-.75698-1.966037-1.20547-4.645211-.14747-1.03713.0113-.02565.64195 1.96961.14747 1.03713zm3.12878-.0838c1.83848-2.409149 2.3993-1.147294 0 0zm-5.06745-.20177c-1.13663-3.083912-1.65262-6.481353-2.81731-9.454432-2.25901-4.688827-3.85115-9.744263-6.38498-14.267877.81437.737693 4.19574 5.925262 2.99624 4.667509-2.47877-3.978058.4931 2.220191 1.60378 3.378258 2.30099 3.993175-2.9082-7.618193-.36795-2.413 1.17307 2.278213 1.82188 4.740009 2.7136 6.932801.72497 2.326332 2.46512 7.532706 2.62967 8.540141-1.35922-3.122725-2.18001-6.519305-3.23866-9.673282-.68091-1.498647-4.54792-7.985908-2.24678-3.048 1.39298 3.649016 3.40609 7.054052 3.98402 10.964334.14797 1.314666 1.58122 3.397721 1.12837 4.373548zm3.97843-.485931c.33014-1.518184 3.16568-2.009184 0 0zm1.46654-.633698c2.64096-2.879675 2.10608-.576964 0 0zm-1.13027-.388865c.83299-1.348583 5.14502-2.886915 1.59009-.730135-.688-.152591-1.04897.594043-1.59009.730135zm.2833-.839591c1.7233-2.63913 1.55374-.54301 0 0zm1.58176-1.101179c1.50891-2.017063 2.63536-1.31528 0 0zm-5.2315-.841866c-.85748-2.712777-2.37385-6.5326-2.23269-8.750162.63094 2.617786 2.01918 7.406848 2.23269 8.750162zm5.07628-.296862c1.6081-2.042003 3.17024-1.551703 0 0zm-4.07913-.516614c-1.12361-3.381489-2.56282-6.887688-2.76348-10.42377.85875 3.418669 1.72999 7.036323 2.82809 10.456334l-.0647-.03256.00009-.000004zm3.80202-.139903c.9765-1.168667 3.88122-3.024588 1.13944-.615266-.34618-.184699-.72233.9017-1.13944.615266zm.7263-1.682607c1.47681-1.761745 2.81739-1.269071.25897-.08879l-.25897.08879v.000002zm.0588-1.059023c1.2488-1.449209 3.17319-1.895941.78427-.292008.1034-.412851-.66909.681841-.78427.292008zm-4.58372-.652486c-.45927-2.098501-1.89269-6.816287-1.75338-7.45699.83966 2.226052 1.69894 5.764219 1.75338 7.45699zm4.32972-.107826c1.22188-1.489818 4.31602-3.025474 1.12884-.63327-.33303.01525-.7786.866655-1.12884.63327zm.9099-1.490688c1.6824-2.231675 3.29437-1.862634 0 0zm-.6542-.115987c.23179-2.028534 4.82205-3.672254 1.06245-1.301799-.43371.16341-.70446 1.44656-1.06245 1.301799zm-3.34408-.254c-.39919-1.508576-2.16883-5.580465-1.54997-5.801362.40544 1.80746 1.46021 4.39911 1.54997 5.801362zm3.53993-1.732139c.0749-1.624194 4.69733-2.781441 1.45674-1.165931-.5534.274667-.86747.978322-1.45674 1.165931zm-3.21936-.616011c-.82185-1.587105-1.43687-6.105507-.31442-1.883097-.0428.291219.73181 1.938291.31442 1.883097zm-5.66596-.148486c-1.17184-3.572935-2.66229-7.185512-5.05253-10.068389 2.23597 1.776895 3.55432 5.166598 4.55115 8.069831-.0162.488434.9721 1.803685.50138 1.998558zm9.17481-.730945c1.23719-1.630556 4.32985-3.045813 1.1346-.655092-.36286.181149-.70382.733332-1.1346.655092zm-8.51279-.613696c-.77043-1.726468.74601-.174404 0 0zm5.27997-.138056c-.70767-1.413871-.63058-4.010672-.008-.92075-.25945-.65716.38836 1.404247.008.92075zm.73352-.07032c-.69082-2.233191-.37061-3.638987.12848-.433582l-.0137.510004-.11451-.07642-.00023-.000002zm3.18208-.625437c.54308-.928082 4.06122-3.269956 1.36205-.963468-.43903.299202-.70895 1.084068-1.36205.963468zm-9.77717-.688175c-1.16998-1.848721-1.44625-4.276342-.0936-1.166654-.78459-.734799.98242 2.395848.0936 1.166654zm1.33581-.288238c-.76436-1.729351-.88804-4.073046.0139-.712288-.21028-.98056.32225 1.144318-.0139.712288zm5.42522-.100248c-.51101-2.047582.63029-.04701.00009 0h-.00009zm-3.87818-.04792c-2.00854-2.253881.5735.03187 0 0zm7.39186-.325351c1.17335-1.952926 3.59128-2.019773.61864-.3448l-.44806.370372-.17058-.02557v.000003zm-9.76846-.380952c-1.07723-1.822369-1.10761-3.308887-.1249-.489644-.14952-.179945.44762.847245.1249.489644zm2.49338-.03456c-1.43511-1.926369.7675.05757 0 0zm7.55505-1.088506c1.72563-1.958494 3.0254-1.324156.25779.04403l-.19024.04396-.0675-.088h-.00002zm-15.98026-.781734c-1.20382-1.57461-3.88688-7.633676-1.18592-2.685176.0248.193674 2.0475 3.602475 1.18592 2.685176zm15.81093.0617c1.40405-1.250827 3.15703-1.74956.59217-.142688l-.53486.226145-.0573-.08346-.00001.000003zm-11.61893-.309882c-.62014-1.525727-4.14871-6.867504-1.27424-2.844663 1.12658 1.501264 1.66307 1.54151 1.27424 2.844663zm-1.90167-.320714c-.74002-1.286686.53877.352672 0 0zm9.12541-.267232c-.98452-.893555-4.35003-5.474236-1.53213-2.313794.0865.199787 2.59507 2.858293 1.53213 2.313794zm-2.12995-.131113c-1.58852-1.604106-2.62019-3.808581-.35502-.940259-.0951-.09811 1.61554 1.758591.35502.940259zm1.1715.132873c-1.29046-1.214015-3.51316-4.668915-.87121-1.559963-.0831.06028 1.73065 1.793409.87121 1.559963zm-3.49866-.282205c-1.3499-1.352297-4.20309-5.75002-1.12256-1.921066.18059.08516 2.40876 2.792753 1.12256 1.921066zm1.35515.06857c-1.33437-1.001857-4.21227-5.917852-1.35943-2.142438.1281.280447 2.40965 2.502557 1.35943 2.142438zm-2.2894.02963c-1.10665-.968622-3.51185-5.157245-1.09263-1.883963.006.284055 2.0795 1.965261 1.09263 1.883963zm7.19821-.206375c-1.55093-1.098099-2.89146-3.813201-.5209-1.10154.17269-.149832 1.67867 2.038569.5209 1.10154zm-10.4847-.603393c-1.32118-1.493492-2.33333-3.642644-.35517-.875957.4263.457546 1.72239 2.572872.35517.875957zm2.07485.483672c-1.05109-1.209646-3.45484-5.39641-.84887-1.748361.126.232152 1.79368 1.884044.84887 1.748361zm9.38953-.149612c-1.58563-.849031-3.81083-4.346046-.89754-1.256996.0225.278608 1.64722 1.136851.89754 1.256996zm.5634-.328222c-2.97491-2.033411-.19536-1.709957.41027.265748l-.41027-.265745v-.000003zm-13.76731.02078c-1.30903-1.344461-2.45225-4.445978-.49-1.04522.0796.163051 1.3376 1.83167.49 1.04522zm14.75879-.137887c-2.14887-1.286057-1.66073-2.240443.10949-.337138.90045.07452.0969.996332-.10949.337138zm.75229-.118388c-2.43978-1.448075.24837-1.337197.35983.247189l-.35983-.24719v.000001zm-16.78429-1.045617c-.37016-1.004577.44937.751434 0 0zm9.94745 26.297895c-.28623-1.45661-.29694.54415 0 0zm-19.00935-.38134c-.30852-.23028.1842.41712 0 0zm-.27036-.39056c-.2147-.19252.20796.3166 0 0zm21.77738-.0447c-.89805-1.95518-.76011-.24863 0 0zm-3.01983-.54411c-.39307-1.23256.14016.90684 0 0zm-19.06499-.0165c-.68255-1.32701-3.83671-6.135841-1.55405-2.38008.45432.68448 1.35503 2.35179 1.55405 2.38008zm25.15746-1.12708c1.24078-5.834308 2.95517-11.680995 3.4781-17.687012 1.09121-1.547822-.0272-7.681851.0751-2.688167-1.30816 6.828495-2.36159 13.724883-3.80368 20.503449l.10495.0149.14547-.14313h.0001zm1.27978-.10809c-.0773-.28624-.45472.37585 0 0zm3.76678-.39442c1.08993-1.590249-2.75211-7.722696-.85739-3.308759.68696.891785.43966 2.883709.85739 3.308759zm-1.46156-.0875c-.007-1.649872-2.88281-8.032595-.57884-3.211662.55239 1.995041 2.11164 4.613002.7339 1.058333-.56428-1.58327-2.64122-6.229033-.57182-2.240985 1.14908 1.755165-2.14378-5.576742.13144-1.315015.007-.195555-1.45942-4.161023.19068-.613834.79685 1.718159 2.81274 7.004713 1.52291 2.698671-.67462-2.421489-2.94545-7.518248-3.23901-2.233005-1.04273 1.325326.46398 3.563983.0622 1.468344 1.21122 1.288679 1.02338 4.528603 1.74852 4.389153zm-40.586954-.5525c-.34449-1.466481-.037.92622 0 0zm38.976914.13792c-.16792-3.228189-1.64973-1.931844-1.2593-.28566.92172-2.832272.15866-.927032 1.2593.28566zm.45573-.37467c-.25992-1.997236-2.15505-4.103594-.50521-1.064758.15869.244266.24216 1.237728.50521 1.064758zm.49481-.02c-.77164-2.943703-.99935-1.707929 0 0zm1.47459-.783167c-.23378-1.662533-.59828-.370986 0 0zm1.46007-1.312334c.54581-1.395886-.76493.546391 0 0zm-2.02985-.342356c-.35293-.518312.0662.624366 0 0zm2.24758-.75309c1.40348-2.71932-.66313-4.652155-1.86478-7.203869-2.63631-3.536702 1.37508 2.675897 1.59143 3.954071.47727 1.060755-.22026 3.028536.27335 3.249798zm-.76972-.365054c-.45125-1.545803-.51161-.09602 0 0zm.33971-.639529c-.27893-1.861747-4.28234-7.979608-1.91823-3.456221.84189.912248 1.03601 2.978955 1.91823 3.456221zm.1232-1.184005c-.0652-1.894689-4.08456-7.927722-1.9621-3.520848.56861 1.176848 1.30567 2.640116 1.9621 3.520848zm-1.47772-.332565c-.53528-2.113139-2.81003-4.263121-.69665-1.029484.2128.0539.36869 1.206733.69665 1.029484zm2.53563-1.187112c.24938-2.294868-3.13841-5.649491-2.84603-6.797736.92937 1.756111 4.7325 8.04321 2.11912 3.018366-.54388-1.292136-2.93536-6.002191-2.62251-2.304127 1.63974.530269 4.28901 8.386202 2.00563 3.62757-.39349-1.654277-3.36476-5.250701-1.31192-1.662106.82447.676572 2.00412 4.919964 2.65571 4.118033zm.53623-2.583455c-.6374-1.729485-2.61606-5.42106-3.70684-5.936421 1.46569 1.689934 2.46545 4.401461 3.70684 5.936421zm.13701-1.035051c.33246-.919124-1.08092-.252183 0 0zm-.37254-.816286c-.58006-1.491963-.28869.607776 0 0zm.52587-.245097c-.19076-.843816-.51946.440328 0 0zm-1.01512-.736259c-.72041-1.722274-2.05624-2.79016-.48216-.458727.0244.203053.88247 1.393423.48216.458727zm.6426.178039c-.4592-1.671693-5.07942-8.045214-1.56227-3.523691.78626 1.440144 2.92163 5.420707 1.12249 1.30063-.51981-1.368905-3.72296-6.070084-2.49201-2.111864.95557 1.393029 2.01229 3.134916 2.93179 4.334925zm.53759-2.11354c-.6474-1.623388-2.50225-5.764119-3.49452-5.437414.89139 1.618983 2.81931 4.394967 3.49452 5.437414zm-.59644-.229507c-.64231-1.904916-4.55981-6.605033-1.61512-2.361955.18084.02804 1.8925 3.640061 1.61512 2.361955zm-2.18688-.252644c-.21471-.192479.20796.316514 0 0zm-.21122-.419583c-1.75143-2.927664-.88788-.197951 0 0zm3.05498-.641292c-.73843-1.793985-3.76-7.013011-4.47499-5.647021.82392-.357417 2.58982 3.286834 3.7043 4.703855.0444-.0594.71873 1.63693.77069.943166zm.17996-.900506c.0263-1.81968-4.62823-6.461438-1.94028-2.911181.57013.574179 1.51255 3.186442 1.94028 2.911181zm-32.55091-.835785c-.54307-1.397692.10595.594707 0 0zm3.31814-.419159c-.57903-.887788.35402.744537 0 0zm-3.60316-.254c-.42712-1.432399-2.14493-4.876897-.80314-1.373681.003-.183479.80076 1.858864.80314 1.373681zm32.01193-1.122286c-1.40207-2.483339-.31944.644236 0 0zM3.986518 77.525382c-4.15926-.8612 2.45891-.23469 0 0zm-1.34278-5.71693c-.49688-1.78574 1.02465.62814 0 0zm71.046554-2.86575c.44079-1.57882 2.39765-.0966 0 0zm-63.156084-26.64582c.13724-1.17519 1.35727.51461 0 0zm.40203-.5839c.0993-1.51338 1.43244-.3637 0 0zm7.78801-1.4217c.64263-2.49505-.48601-6.20909-.22481-8.10745.27714 2.5153 1.28069 6.07398.22481 8.10745zm-7.72098-.11726c-.25428-1.31679 1.5215-.13471 0 0zm11.44475-.72659c.0299-3.46959-.72893-7.85837-1.5055-10.61509 1.52836 3.14514 1.84478 7.49918 1.5055 10.61509zm.71729-.42806c-.0826-1.90958-.44248-7.66572.16092-2.56908-.31312.48126.48623 2.58715-.16092 2.56908zm-12.20213-.0998c-.162-1.80192 1.21422.30919 0 0zm16.31855-.78727c-.18426-3.73144-.76739-7.54314-2.08364-11.08232 1.83457 3.22707 2.15528 7.3873 2.29681 11.14096l-.11643.0301-.0967-.0887-.00001-.00004zm14.099564-.0191c-1.15826-1.38006-1.75028-2.941-.20047-.53615-.18569-.35995.62625.93796.20047.53615zm2.48072-.001c-1.16303-1.35018-3.10579-4.79385-.82651-1.43267-.0591-.12158 1.1987 1.83548.82651 1.43267zm-17.629804-.45647c-.0433-3.47749-.44441-7.13743-2.12451-10.22998-1.59603-1.31015-2.80847-3.342544-.39385-.85303 2.42231 2.85526 2.48035 7.03556 2.84442 10.62273.24512.18793-.11612.69659-.32606.46028zm-15.38063-.0911c-.1896-1.35092 1.24136-.0454 0 0zm17.87679-.10248c.13459-1.60193-.31327-6.88613.24325-2.39782-.28191.38472.50793 2.61467-.24325 2.39782zm.60114-.89574c.42856-2.99838-1.73361-8.12011-1.56995-9.67591.86425 2.89103 2.27375 6.84997 1.56995 9.67591zm-18.8554-.41626c.0541-1.44449 1.52054.0701 0 0zm29.451674-.38043c-.0517-.21228.1367.16128 0 0zm-10.057304-.6851c.69471-2.31463-1.46062-7.93668-1.0663-8.20831.86394 2.47136 1.79218 5.86727 1.0663 8.20831zm6.882394-.2528c-.50246-1.35919.64302 1.08711 0 0zm-26.587124.17554c-1.04704-.76234 1.74486-.63709 0 0zm25.539644-.5154c-.78986-1.66737-2.980764-5.37171-2.625774-6.04308 1.181994 2.71383 1.714824 3.84443 2.835154 6.35006l-.20935-.30691-.00003-.00007zm.42923-.94192c-1.47048-2.949-4.030294-6.75533-4.300404-9.450705.91822 3.023055 3.642534 7.462025 4.300404 9.450705zm-26.635714.20461c-.13753-1.44991 1.52013-.0521 0 0zm-.65535-1.11596c.11169-1.2368-1.52995-1.68521-1.67626-2.35302-3.58951-3.1329 4.37977 2.15016 1.67626 2.35302zm26.197644-.0609c-.13545-.44074.30915.27362 0 0zm-24.913934-.14892c-.0574-1.69858-5.42333-4.59868-1.40451-2.37785.4831.20181 2.15344 2.08326 1.40451 2.37785zm27.968544-.13751c-2.09012-3.66717-4.52477-7.24162-5.769274-11.305775 1.799504 3.838475 3.861134 7.693055 5.919364 11.455805l-.15009-.15003zm8.12873-.12775c-1.02077-1.98258.5244.37969 0 0zm-7.99009-.28856c-.0517-.21236.1367.16156 0 0zm-27.964994-.93539c-1.5176-1.39998-3.4416-3.02986-.49345-1.0413.19172.0677 1.46843 1.78913.49345 1.0413zm36.565624.1534c-.11498-.30673.16447.19596 0 0zm1.42299.0159c-.23477-.29627.27593.0302 0 0zm-37.244744-.40367c-.7942-1.09476-3.84716-3.43496-.8014-1.39708.40585-.12796 1.94738 2.73998.8014 1.39708zm34.706164.23064c-.74735-1.03171.0848-.35746 0 0zm-33.656084-.0668c-.8001-1.55718-4.02469-4.13536-.64862-1.5968.0253.10496 1.433 1.70524.64862 1.5968zm1.14292-.0179c-.0799-1.54774-4.40068-4.25928-.91017-2.04933.30165.21484 1.59015 2.06607.91017 2.04933zm22.937814-.132c-1.2282-2.05071.32102-.25338-.00005-.00004l.00005.00004zm-22.150194-.39601c-1.02492-1.42769-4.04548-4.27698-.77843-1.64911.0776.14814 1.81282 2.33743.77843 1.64911zm-7.55517-.0309c.22718-.58467.74788.2347 0 0zm8.42941-.72416c-.85287-.78621-3.86569-3.62088-1.05572-1.56151-.0297.16182 2.05503 1.80055 1.05572 1.56151zm20.603554-.0928c-1.06104-2.12876-3.502764-5.436148-3.305434-7.18446.66845 2.478367 2.632364 5.19342 3.305434 7.18446zm-19.700724-.33621c-1.28997-.96719-3.55879-3.28044-.69108-1.08842.037.1041 1.82014 1.59195.69108 1.08842zm.83283-.3424c-1.32332-1.03637-3.53367-3.04305-.75122-1.08054.31025.0466 1.83951 1.84522.75122 1.08054zm1.35872-.0622c-1.17924-1.45179-2.98858-3.58102-.30803-1.11125.32827-.0587 1.12614 2.20171.30803 1.11125zm-1.01257-.3175c-1.92365-1.50364-1.96397-2.52139-.0234-.38995.39576-.031.5779 1.16687.0234.38995zm1.68536-.24755c-.7373-.93343-2.92735-3.06282-.46517-1.10332.16627.084 1.51389 2.115.46517 1.10332zm.92033-.16742c-1.10475-.93269-2.79228-3.220508-.51642-.99126.0284.0448 1.27278 1.29939.51642.99126zm1.62291-.32586c-.94628-.94908-2.83923-3.063568-.4923-1.06907.0383-.0782 1.49814 1.63265.4923 1.06907zm-1.18808-.15171c-1.75639-1.33635-1.88277-2.45369-.0428-.45154.12148-.0506.61981.82321.0428.45154zm1.85722-.27061c-1.96085-1.50053-1.703-2.25271.0575-.34581.59557.0429.15753.67069-.0575.34581zm14.098914-.31852c-1.09727-2.55015-3.336794-5.757422-3.453094-8.000997.77385 2.452288 3.230294 6.673657 3.453094 8.000997zm2.50573.17646c-.0759-.32162.19847.25125 0 0zm-12.985544-.14048c-1.41941-1.21911-2.35031-3.447383-.31162-.93141-.0699-.0117 1.00183 1.26751.31162.93141zm-.70223-.12077c-1.12117-.61537-2.95817-3.159453-.67739-.95763-.41113-.24833 1.54728 1.28344.67739.95763zm13.498824-.0668c-1.86125-3.466377-3.92819-6.995157-5.150074-10.668766 1.791294 3.405138 3.379874 7.189414 5.221674 10.666696l-.0716.002zm-10.610584-.22131c-1.32987-.9526-3.20692-3.329158-.78424-1.13535.006.12774 1.67133 1.32811.78424 1.13535zm.30196-.65298c-1.59985-1.0913-2.49216-2.506309-.29597-.71628.27287.07 1.39283 1.62978.29597.71628zm8.915674.0351c-1.17427-2.06792-4.098684-6.751101-3.462234-7.543986.640844 2.537148 2.769104 5.787731 3.462234 7.543986zm-8.470844-.5546c-2.74419-1.767422.038-.891773.40267.29689l-.40267-.29689zm1.38687-.33589c-3.04325-2.269282.64564-.807377 0 0zm13.095234-.295409c-2.58337-5.143782-4.93629-10.422873-7.71408-15.46637-.83196-1.442475-.78844-4.015904.0871-1.024105 1.18996 3.691114 3.50624 6.946636 4.9807 10.548411.87696 1.942789 2.01932 4.019636 2.64627 5.942064zm1.43131-.477508c-.17423-.350313.25573.172506 0 0zm-.76882-.387088c-.41209-1.042769.5895.983975 0 0zm.43434-.184986c-2.59299-5.148176-5.26428-10.248412-7.929-15.358112-.97722-1.702822-1.15474-5.551225-.26858-1.64059 1.77563 5.066383 4.86663 9.555793 7.04344 14.458301.22132.632256 1.41177 2.460266 1.15414 2.540401zm1.22028-.51217c-3.18398-6.172277-6.91695-12.10795-9.41985-18.62437-.75141-2.312171 1.7877 3.342123 2.10375 4.339167 2.14715 4.97779 5.29465 9.462427 7.44135 14.430375l-.12527-.145172h.00002zm.17435-.908214c-3.28414-5.758834-6.57314-11.58218-8.83186-17.821989-1.22239-1.698092-1.62029-2.581644.0751-.560917 2.27593 6.631449 5.77899 12.749069 9.13308 18.880667l-.37624-.497761h-.00006zm-6.86933-1.704504c-1.58835-3.139001-3.6954-6.324392-4.61294-9.619318 1.54824 3.260079 3.18768 6.544093 4.77601 9.806857l-.16307-.187539zm-.53917-3.336068c-1.33686-2.80373-3.54935-5.577576-3.73954-8.685486.79088 3.161399 2.63335 6.142384 3.92583 8.979184l-.18629-.293696v-.000002z"
     id="path238" />
</svg>
